<?xml version="1.0" encoding="UTF-8" standalone="no"?>
<!-- Created with Inkscape (http://www.inkscape.org/) -->

<svg
   width="166.95667mm"
   height="195.51549mm"
   viewBox="0 0 166.95666 195.51548"
   version="1.1"
   id="svg5"
   xml:space="preserve"
   inkscape:version="1.2.1 (9c6d41e410, 2022-07-14)"
   sodipodi:docname="CDR_gap_concept.svg"
   inkscape:export-filename="CDR_gap_concept.png"
   inkscape:export-xdpi="499"
   inkscape:export-ydpi="499"
   xmlns:inkscape="http://www.inkscape.org/namespaces/inkscape"
   xmlns:sodipodi="http://sodipodi.sourceforge.net/DTD/sodipodi-0.dtd"
   xmlns="http://www.w3.org/2000/svg"
   xmlns:svg="http://www.w3.org/2000/svg"><sodipodi:namedview
     id="namedview7"
     pagecolor="#ffffff"
     bordercolor="#666666"
     borderopacity="1.0"
     inkscape:showpageshadow="2"
     inkscape:pageopacity="0"
     inkscape:pagecheckerboard="0"
     inkscape:deskcolor="#d1d1d1"
     inkscape:document-units="mm"
     showgrid="false"
     inkscape:zoom="0.78127804"
     inkscape:cx="327.02826"
     inkscape:cy="337.90787"
     inkscape:window-width="1826"
     inkscape:window-height="1057"
     inkscape:window-x="86"
     inkscape:window-y="-8"
     inkscape:window-maximized="1"
     inkscape:current-layer="layer3"
     showguides="true"><inkscape:page
       x="0"
       y="0"
       width="166.95665"
       height="195.51547"
       id="page470" /><inkscape:page
       x="210.21954"
       y="-5.8654418"
       width="166.6106"
       height="92.751984"
       id="page472" /><sodipodi:guide
       position="-75.872771,40.460517"
       orientation="1,0"
       id="guide11163"
       inkscape:locked="false" /></sodipodi:namedview><defs
     id="defs2"><marker
       style="overflow:visible"
       id="Dot"
       refX="0"
       refY="0"
       orient="auto"
       inkscape:stockid="Dot"
       markerWidth="3"
       markerHeight="3"
       viewBox="0 0 5.6666667 5.6666667"
       inkscape:isstock="true"
       inkscape:collect="always"
       preserveAspectRatio="xMidYMid"><path
         transform="scale(0.5)"
         style="fill:context-stroke;fill-rule:evenodd;stroke:context-stroke;stroke-width:1pt"
         d="M 5,0 C 5,2.76 2.76,5 0,5 -2.76,5 -5,2.76 -5,0 c 0,-2.76 2.3,-5 5,-5 2.76,0 5,2.24 5,5 z"
         id="Dot1"
         sodipodi:nodetypes="sssss" /></marker><clipPath
       clipPathUnits="userSpaceOnUse"
       id="clipPath362-4"><path
         d="m 440.214,58.0377 h 1.792 V 50.15 h -1.792 z"
         id="path360-6" /></clipPath><clipPath
       clipPathUnits="userSpaceOnUse"
       id="clipPath1588"><g
         id="g1594"
         style="stroke-width:0.999999"><g
           id="g1592"
           style="stroke-width:0.999999"><path
             d="M 5.4221917,4.4221849 H 172.03278 V 97.174166 H 5.4221917 Z"
             id="path1590"
             style="stroke-width:0.999999" /></g></g></clipPath><clipPath
       clipPathUnits="userSpaceOnUse"
       id="clipPath1641"><g
         id="g1647"
         style="stroke-width:0.999999"><g
           id="g1645"
           style="stroke-width:0.999999"><path
             d="M 5.4221917,4.4221849 H 172.03278 V 97.174166 H 5.4221917 Z"
             id="path1643"
             style="stroke-width:0.999999" /></g></g></clipPath><marker
       style="overflow:visible"
       id="Arrow4-0"
       refX="0"
       refY="0"
       orient="auto-start-reverse"
       inkscape:stockid="Arrow4"
       markerWidth="3"
       markerHeight="3.5999999"
       viewBox="0 0 5 6"
       inkscape:isstock="true"
       inkscape:collect="always"
       preserveAspectRatio="xMidYMid"><path
         style="fill:context-stroke;fill-rule:evenodd;stroke:none"
         d="m 1,0 -3,3 h -2 l 3,-3 -3,-3 h 2 z"
         id="path1741-8" /></marker><marker
       style="overflow:visible"
       id="marker7795-6"
       refX="0"
       refY="0"
       orient="auto-start-reverse"
       inkscape:stockid="Arrow4"
       markerWidth="3"
       markerHeight="3.5999999"
       viewBox="0 0 5 6"
       inkscape:isstock="true"
       inkscape:collect="always"
       preserveAspectRatio="xMidYMid"><path
         style="fill:context-stroke;fill-rule:evenodd;stroke:none"
         d="m 1,0 -3,3 h -2 l 3,-3 -3,-3 h 2 z"
         id="path7793-2" /></marker><marker
       style="overflow:visible"
       id="marker7795-6-5"
       refX="0"
       refY="0"
       orient="auto-start-reverse"
       inkscape:stockid="Arrow4"
       markerWidth="2.5"
       markerHeight="2.5"
       viewBox="0 0 5 6"
       inkscape:isstock="true"
       inkscape:collect="always"
       preserveAspectRatio="xMidYMid"><path
         style="fill:context-stroke;fill-rule:evenodd;stroke:none"
         d="m 1,0 -3,3 h -2 l 3,-3 -3,-3 h 2 z"
         id="path7793-2-6" /></marker><marker
       style="overflow:visible"
       id="Arrow4-0-2"
       refX="0"
       refY="0"
       orient="auto-start-reverse"
       inkscape:stockid="Arrow4"
       markerWidth="2.5"
       markerHeight="2.5"
       viewBox="0 0 5 6"
       inkscape:isstock="true"
       inkscape:collect="always"
       preserveAspectRatio="xMidYMid"><path
         style="fill:context-stroke;fill-rule:evenodd;stroke:none"
         d="m 1,0 -3,3 h -2 l 3,-3 -3,-3 h 2 z"
         id="path1741-8-8" /></marker><marker
       style="overflow:visible"
       id="Dot-6"
       refX="0"
       refY="0"
       orient="auto"
       inkscape:stockid="Dot"
       markerWidth="3"
       markerHeight="3"
       viewBox="0 0 5.6666667 5.6666667"
       inkscape:isstock="true"
       inkscape:collect="always"
       preserveAspectRatio="xMidYMid"><path
         transform="scale(0.5)"
         style="fill:context-stroke;fill-rule:evenodd;stroke:context-stroke;stroke-width:1pt"
         d="M 5,0 C 5,2.76 2.76,5 0,5 -2.76,5 -5,2.76 -5,0 c 0,-2.76 2.3,-5 5,-5 2.76,0 5,2.24 5,5 z"
         id="Dot1-7"
         sodipodi:nodetypes="sssss" /></marker><marker
       style="overflow:visible"
       id="Dot-68"
       refX="0"
       refY="0"
       orient="auto"
       inkscape:stockid="Dot"
       markerWidth="3"
       markerHeight="3"
       viewBox="0 0 5.6666667 5.6666667"
       inkscape:isstock="true"
       inkscape:collect="always"
       preserveAspectRatio="xMidYMid"><path
         transform="scale(0.5)"
         style="fill:context-stroke;fill-rule:evenodd;stroke:context-stroke;stroke-width:1pt"
         d="M 5,0 C 5,2.76 2.76,5 0,5 -2.76,5 -5,2.76 -5,0 c 0,-2.76 2.3,-5 5,-5 2.76,0 5,2.24 5,5 z"
         id="Dot1-4"
         sodipodi:nodetypes="sssss" /></marker><marker
       style="overflow:visible"
       id="Dot-68-8"
       refX="0"
       refY="0"
       orient="auto"
       inkscape:stockid="Dot"
       markerWidth="3"
       markerHeight="3"
       viewBox="0 0 5.6666667 5.6666667"
       inkscape:isstock="true"
       inkscape:collect="always"
       preserveAspectRatio="xMidYMid"><path
         transform="scale(0.5)"
         style="fill:context-stroke;fill-rule:evenodd;stroke:context-stroke;stroke-width:1pt"
         d="M 5,0 C 5,2.76 2.76,5 0,5 -2.76,5 -5,2.76 -5,0 c 0,-2.76 2.3,-5 5,-5 2.76,0 5,2.24 5,5 z"
         id="Dot1-4-0"
         sodipodi:nodetypes="sssss" /></marker><marker
       style="overflow:visible"
       id="marker7795-6-4"
       refX="0"
       refY="0"
       orient="auto-start-reverse"
       inkscape:stockid="Arrow4"
       markerWidth="3"
       markerHeight="3.5999999"
       viewBox="0 0 5 6"
       inkscape:isstock="true"
       inkscape:collect="always"
       preserveAspectRatio="xMidYMid"><path
         style="fill:context-stroke;fill-rule:evenodd;stroke:none"
         d="m 1,0 -3,3 h -2 l 3,-3 -3,-3 h 2 z"
         id="path7793-2-7" /></marker><marker
       style="overflow:visible"
       id="Arrow4-0-6"
       refX="0"
       refY="0"
       orient="auto-start-reverse"
       inkscape:stockid="Arrow4"
       markerWidth="3"
       markerHeight="3.5999999"
       viewBox="0 0 5 6"
       inkscape:isstock="true"
       inkscape:collect="always"
       preserveAspectRatio="xMidYMid"><path
         style="fill:context-stroke;fill-rule:evenodd;stroke:none"
         d="m 1,0 -3,3 h -2 l 3,-3 -3,-3 h 2 z"
         id="path1741-8-7" /></marker></defs><g
     inkscape:groupmode="layer"
     id="layer2"
     inkscape:label="hidden"
     style="display:none"
     sodipodi:insensitive="true"
     transform="translate(-9.7804632,-5.8654419)"><path
       d="m 19.355012,38.774768 1.345142,-0.289278 1.359252,-0.246239 1.345142,-0.202141 1.344789,-0.144639 1.359252,-0.115711 1.345142,-0.08678 1.344789,0.130175 1.359605,0.347134 1.344789,0.549627 1.345142,0.752123 1.359252,0.910872 1.344789,1.113367 1.345142,1.272469 1.359253,1.460853 1.345141,1.634419 1.344789,1.619603 1.359253,1.503892 1.345141,1.431925 1.344789,1.330325 1.359606,1.243894 1.344788,1.185686 1.345142,1.098903 1.359253,1.027289 1.344789,0.9398 1.345141,0.882297 1.359253,0.867481 1.345141,0.838905 1.344789,0.809625 1.359253,0.78105 1.345142,0.75177 1.344788,0.723194 1.359606,0.694267 1.344789,0.664986 1.345141,0.621947 1.359253,0.607484 1.344789,0.578202 1.345141,0.578909 1.359253,0.564091 1.345142,0.534812 1.344789,0.5207 1.359252,0.506236 1.345142,0.477308 1.344789,0.477308 1.359605,0.462492 1.344789,0.462844 1.344789,0.462845 1.359605,0.462844 1.344789,0.448028 1.345142,0.448733 1.359252,0.448028 1.345142,0.433917 1.344789,0.419453 1.359253,0.404989 1.345141,0.404636 1.344789,0.376061 1.359606,0.376061 1.344788,0.361597 1.345142,0.347133 1.359253,0.33267 1.34514,0.332317 1.34444,0.304094 1.3596,0.288925 1.34479,0.274814 1.34514,0.26035 1.35926,0.26035 1.34514,0.245533 1.34479,0.231422 1.3596,0.231775 1.34479,0.202142 1.34514,0.188031 1.35961,0.18803 1.34479,0.159456 1.34479,0.15875 1.35925,0.144639 1.34514,0.115711 1.34479,0.130175 1.3596,0.115711 1.34479,0.115358 1.34514,0.1016 1.35926,0.101247 1.34514,0.101248 1.34479,0.08678 1.3596,0.07232 1.34479,0.08678 1.34479,0.0575 1.35925,0.07232 1.34514,0.07232 1.34479,0.07232 1.35961,0.05786 1.34479,0.07232"
       style="fill:none;stroke:#110f0d;stroke-width:0.499886;stroke-linecap:round;stroke-linejoin:round;stroke-miterlimit:4;stroke-dasharray:0, 1.00013;stroke-dashoffset:0;stroke-opacity:1"
       id="path266" /><path
       d="m 55.679053,33.826566 c 0,7.513108 -6.003219,13.61052 -13.479638,13.762567"
       style="fill:none;stroke:#231f20;stroke-width:0.250119;stroke-linecap:butt;stroke-linejoin:miter;stroke-miterlimit:4;stroke-dasharray:none;stroke-opacity:1"
       id="path448"
       clip-path="url(#clipPath1641)" /><path
       d="m 42.675029,47.12911 -0.402167,0.444853 0.444853,0.401814 -0.35948,0.01799 -0.4445,-0.401814 0.401813,-0.4445 z"
       style="fill:#231f20;fill-opacity:1;fill-rule:nonzero;stroke:none;stroke-width:0.352778"
       id="path452"
       clip-path="url(#clipPath1588)" /><path
       d="m 142.66752,64.154413 h 1.96427 v 7.016397 h -1.96427"
       style="fill:none;stroke:#959394;stroke-width:0.250119;stroke-linecap:round;stroke-linejoin:round;stroke-miterlimit:4;stroke-dasharray:none;stroke-opacity:1"
       id="path258" /><path
       d="m 142.66752,72.714107 h 1.96427 v 11.647311 h -1.96427"
       style="fill:none;stroke:#959394;stroke-width:0.250119;stroke-linecap:round;stroke-linejoin:round;stroke-miterlimit:4;stroke-dasharray:none;stroke-opacity:1"
       id="path262" /><text
       xml:space="preserve"
       style="font-style:normal;font-variant:normal;font-weight:normal;font-stretch:normal;font-size:3.175px;line-height:1.25;font-family:Arial;-inkscape-font-specification:'Arial, Normal';font-variant-ligatures:none;font-variant-caps:normal;font-variant-numeric:normal;font-variant-east-asian:normal;stroke-width:0.264583"
       x="146.95642"
       y="68.798973"
       id="text1651-1"><tspan
         sodipodi:role="line"
         id="tspan4125"
         x="146.95642"
         y="68.798973">Gross emissions</tspan></text><text
       xml:space="preserve"
       style="font-style:normal;font-variant:normal;font-weight:normal;font-stretch:normal;font-size:3.175px;line-height:1.25;font-family:Arial;-inkscape-font-specification:'Arial, Normal';font-variant-ligatures:none;font-variant-caps:normal;font-variant-numeric:normal;font-variant-east-asian:normal;stroke-width:0.264583"
       x="146.95642"
       y="79.674126"
       id="text1651-7"><tspan
         sodipodi:role="line"
         id="tspan4123"
         x="146.95642"
         y="79.674126">Gross removals</tspan></text><path
       d="m 142.66752,175.85994 h 1.96427 v 7.0164 h -1.96427"
       style="fill:none;stroke:#959394;stroke-width:0.250119;stroke-linecap:round;stroke-linejoin:round;stroke-miterlimit:4;stroke-dasharray:none;stroke-opacity:1"
       id="path258-4" /><path
       d="m 142.66752,184.41964 h 1.96427 v 11.64731 h -1.96427"
       style="fill:none;stroke:#959394;stroke-width:0.250119;stroke-linecap:round;stroke-linejoin:round;stroke-miterlimit:4;stroke-dasharray:none;stroke-opacity:1"
       id="path262-4" /><text
       xml:space="preserve"
       style="font-style:normal;font-variant:normal;font-weight:normal;font-stretch:normal;font-size:3.175px;line-height:1.25;font-family:Arial;-inkscape-font-specification:'Arial, Normal';font-variant-ligatures:none;font-variant-caps:normal;font-variant-numeric:normal;font-variant-east-asian:normal;stroke-width:0.264583"
       x="146.95642"
       y="180.5045"
       id="text1651-1-8"><tspan
         sodipodi:role="line"
         id="tspan4125-0"
         x="146.95642"
         y="180.5045">Gross emissions</tspan></text><text
       xml:space="preserve"
       style="font-style:normal;font-variant:normal;font-weight:normal;font-stretch:normal;font-size:3.175px;line-height:1.25;font-family:Arial;-inkscape-font-specification:'Arial, Normal';font-variant-ligatures:none;font-variant-caps:normal;font-variant-numeric:normal;font-variant-east-asian:normal;stroke-width:0.264583"
       x="146.95642"
       y="191.37965"
       id="text1651-7-8"><tspan
         sodipodi:role="line"
         id="tspan4123-7"
         x="146.95642"
         y="191.37965">Gross removals</tspan></text><path
       style="fill:none;stroke:#2f2d2e;stroke-width:0.264583px;stroke-linecap:butt;stroke-linejoin:miter;stroke-opacity:1"
       d="m 140.70104,203.18738 v 1"
       id="path1718-3" /></g><g
     inkscape:groupmode="layer"
     id="layer3"
     inkscape:label="background"
     transform="translate(4.4025088,6.5462821)"><rect
       style="fill:#ffffff;fill-opacity:1;stroke:none;stroke-width:0.25;stroke-miterlimit:1;stroke-dasharray:0.529167, 0.264583;stroke-dashoffset:0;stroke-opacity:1"
       id="rect16820"
       width="166.95667"
       height="193.03307"
       x="9.7804632"
       y="8.3478699"
       transform="translate(-14.182972,-12.411724)" /></g><g
     inkscape:label="Ebene 1"
     inkscape:groupmode="layer"
     id="layer1"
     transform="translate(-9.7804632,-5.8654419)"><path
       d="m 19.355012,19.971078 1.345142,-0.462844 1.359252,-0.462845 1.345142,-0.433917 1.344789,-0.390172 1.359252,-0.376061 1.345142,-0.361597 1.344789,-0.04339 1.359605,0.26035 1.344789,0.59302 1.345142,0.911225 1.359252,1.229077 1.344789,1.53282 1.345142,1.836561 1.359253,2.126192 1.345141,2.429227 1.344789,2.444045 1.359253,2.285294 1.345141,2.154767 1.344789,2.009775 1.359606,1.865842 1.344788,1.735314 1.345142,1.590675 1.359253,1.446389 1.344789,1.315861 1.345141,1.156758 1.359253,1.171928 1.345141,1.113367 1.344789,1.055511 1.359253,0.998008 1.345142,0.9398 1.344788,0.867833 1.359606,0.824442 1.344789,0.751769 1.345141,0.694267 1.359253,0.650875 1.344789,0.708378 1.345141,0.723194 1.359253,0.723195 1.345142,0.723194 1.344789,0.723195 1.359252,0.737305 1.345142,0.708731 1.344789,0.650875 1.359605,0.578555 1.344789,0.462492 1.344789,0.419453 1.359605,0.347133 1.344789,0.288925 1.345142,0.231775 1.359252,0.173567 1.345142,0.144286 1.344789,0.130175 1.359253,0.144639 1.345141,0.144639 1.344789,0.116064 1.359606,0.115358 1.344788,0.115711 1.345142,0.101247 1.359253,0.101248 1.34514,0.101247 1.34444,0.08678 1.3596,0.07232 1.34479,0.07197 1.34514,0.05786 1.35926,0.05786 1.34514,0.05821 1.34479,0.05785 1.3596,0.05786 1.34479,0.04339 1.34514,0.04339 1.35961,0.04339 1.34479,0.04339 1.34479,0.02893 1.35925,0.02893 1.34514,0.02893 1.34479,0.02893 1.3596,0.02858 1.34479,0.02893 1.34514,0.01446 1.35926,0.02893 1.34514,0.01446 1.34479,0.01446 1.3596,0.01446 1.34479,0.01446 1.34479,0.01446 1.35925,0.01446 h 1.34514 l 1.34479,0.01446 1.35961,0.01446 1.34479,0.01446 v 4.598811 l -1.34479,-0.01446 -1.35961,-0.01446 -1.34479,-0.01446 -1.34514,-0.01446 -1.35925,-0.02893 -1.34479,-0.01446 -1.34479,-0.01446 -1.3596,-0.01446 -1.34479,-0.02893 -1.34514,-0.02893 -1.35926,-0.01446 -1.34514,-0.02893 -1.34479,-0.02893 -1.3596,-0.04304 -1.34479,-0.02893 -1.34514,-0.02893 -1.35925,-0.04339 -1.34479,-0.02893 -1.34479,-0.02893 -1.35961,-0.04339 -1.34514,-0.04339 -1.34479,-0.02893 -1.3596,-0.04339 -1.34479,-0.04339 -1.34514,-0.04339 -1.35926,-0.04339 -1.34514,-0.04339 -1.34479,-0.05821 -1.3596,-0.07232 -1.34444,-0.08643 -1.34514,-0.08678 L 97.636397,69.285531 96.291255,69.184284 94.946467,69.054109 93.586861,68.923934 92.242072,68.808576 90.896931,68.64912 89.537678,68.490017 88.192889,68.316451 86.847747,68.128773 85.488495,67.926278 84.143353,67.708967 82.798564,67.477898 81.438959,67.232012 80.09417,66.971309 78.749381,66.725776 77.389776,66.436498 76.044987,66.133109 74.699845,65.785623 73.340593,65.424378 71.995804,65.019389 70.650662,64.585473 69.291409,64.122628 67.946268,63.631209 66.601479,63.110156 65.242226,62.589809 63.897085,62.025717 62.552296,61.418234 61.19269,60.753248 59.847902,60.058981 58.50276,59.306859 57.143507,58.511698 55.798718,57.672792 54.453577,56.790495 53.094324,55.865159 51.749183,54.93947 50.404394,53.92735 49.045141,52.828095 47.699999,51.642056 46.355211,50.355123 44.995605,48.995517 43.650816,47.549481 42.305675,46.002198 40.946422,44.33885 l -1.344789,-1.778705 -1.345141,-1.79317 -1.359253,-1.576564 -1.345142,-1.387827 -1.344789,-1.171575 -1.359252,-0.983192 -1.345142,-0.766586 -1.344789,-0.535164 -1.359605,-0.318206 -1.344789,-0.07232 -1.345142,0.173567 -1.359252,0.18803 -1.344789,0.231422 -1.345142,0.274814 -1.359252,0.33267 -1.345142,0.361244 z"
       style="fill:#ebbbdd;fill-opacity:1;fill-rule:nonzero;stroke:none;stroke-width:0.352778"
       id="path218" /><path
       d="m 19.355012,35.517431 1.345142,-0.361244 1.359252,-0.333023 1.345142,-0.274461 1.344789,-0.231422 1.359252,-0.188383 1.345142,-0.173567 1.344789,0.07232 1.359605,0.318559 1.344789,0.534811 1.345142,0.766586 1.359252,0.983192 1.344789,1.171927 1.345142,1.387828 1.359253,1.576564 1.345141,1.79317 1.344789,1.778705 1.359253,1.663347 1.345141,1.546931 1.344789,1.446389 1.359606,1.359605 1.344788,1.286934 1.345142,1.185686 1.359253,1.099608 1.344789,1.01212 1.345141,0.925689 1.359253,0.925336 1.345141,0.882297 1.344789,0.838905 1.359253,0.795162 1.345142,0.751769 1.344788,0.694267 1.359606,0.665339 1.344789,0.607483 1.345141,0.563739 1.359253,0.5207 1.344789,0.5207 1.345141,0.491772 1.359253,0.462492 1.345142,0.434269 1.344789,0.404636 1.359252,0.361598 1.345142,0.347133 1.344789,0.303742 1.359605,0.289277 1.344789,0.245534 1.344789,0.26035 1.359605,0.246239 1.344789,0.231069 1.345142,0.216958 1.359252,0.202495 1.345142,0.18803 1.344789,0.173567 1.359253,0.159103 1.345141,0.159103 1.344789,0.115358 1.359606,0.130175 1.344788,0.130528 1.345142,0.101247 1.359253,0.101247 1.34514,0.08678 1.34444,0.08643 1.3596,0.07232 1.34479,0.05786 1.34514,0.04339 1.35926,0.04339 1.34514,0.04339 1.34479,0.04339 1.3596,0.04339 1.34479,0.02893 1.34514,0.04339 1.35961,0.04374 1.34479,0.02893 1.34479,0.02893 1.35925,0.04339 1.34514,0.02893 1.34479,0.02893 1.3596,0.04304 1.34479,0.02893 1.34514,0.02893 1.35926,0.01446 1.34514,0.02893 1.34479,0.02893 1.3596,0.01446 1.34479,0.01446 1.34479,0.01446 1.35925,0.02893 1.34514,0.01446 1.34479,0.01446 1.35961,0.01446 1.34479,0.01446 v 2.328333 l -1.34479,0.01446 -1.35961,0.01446 h -1.34479 l -1.34514,0.01446 -1.35925,0.01446 h -1.34479 l -1.34479,0.01446 h -1.3596 l -1.34479,0.01446 h -1.34514 -1.35926 l -1.34514,-0.01446 h -1.34479 l -1.3596,-0.01446 h -1.34479 l -1.34514,-0.01446 -1.35925,-0.01446 h -1.34479 -1.34479 l -1.35961,-0.01446 h -1.34514 -1.34479 l -1.3596,0.01446 h -1.34479 -1.34514 l -1.35926,0.01446 h -1.34514 -1.34479 l -1.3596,0.01446 h -1.34444 -1.34514 -1.359253 -1.345142 -1.344788 l -1.359606,-0.01446 h -1.344789 -1.345141 l -1.359253,-0.01446 h -1.344789 l -1.345142,-0.01446 h -1.359252 l -1.345142,-0.01446 -1.344789,-0.01446 h -1.359605 l -1.344789,-0.01446 -1.344789,-0.01411 -1.359605,-0.01446 -1.344789,-0.01446 -1.345142,-0.01446 h -1.359252 l -1.344789,-0.01446 -1.345142,-0.01446 -1.359253,-0.01482 h -1.345141 l -1.344789,-0.01446 -1.359253,-0.01446 -1.345141,-0.01446 -1.344789,-0.02893 -1.359606,-0.02893 -1.344788,-0.04339 -1.345142,-0.05786 -1.359253,-0.05786 -1.344789,-0.07232 -1.345141,-0.07232 -1.359253,-0.08678 -1.345141,-0.07197 -1.344789,-0.115711 -1.359253,-0.144639 -1.345142,-0.173919 -1.344788,-0.202142 -1.359606,-0.231422 -1.344789,-0.26035 -1.345141,-0.274814 -1.359253,-0.318205 -1.344789,-0.346781 -1.345141,-0.347486 -1.359253,-0.317853 -1.345142,-0.289278 -1.344789,-0.274814 -1.359252,-0.245886 -1.345142,-0.216958 -1.344789,-0.202494 -1.359605,-0.173567 -1.344789,-0.144639 -1.345142,-0.115711 -1.359252,-0.129822 -1.344789,-0.101248 -1.345142,-0.08678 -1.359252,-0.07232 -1.345142,-0.04375 z"
       style="fill:#a3c0d7;fill-opacity:1;fill-rule:nonzero;stroke:none;stroke-width:0.352778"
       id="path222" /><path
       d="m 19.355012,67.289797 1.345142,0.04339 1.359252,0.07232 1.345142,0.08678 1.344789,0.101248 1.359252,0.129822 1.345142,0.116064 1.344789,0.144639 1.359605,0.173566 1.344789,0.202142 1.345142,0.216958 1.359252,0.246239 1.344789,0.274461 1.345142,0.289278 1.359253,0.318206 1.345141,0.347133 1.344789,0.346781 1.359253,0.318558 1.345141,0.274461 1.344789,0.26035 1.359606,0.231775 1.344788,0.202142 1.345142,0.173566 1.359253,0.144639 1.344789,0.115711 1.345141,0.07197 1.359253,0.08714 1.345141,0.07232 1.344789,0.07232 1.359253,0.05786 1.345142,0.05786 1.344788,0.04339 1.359606,0.02893 1.344789,0.02893 1.345141,0.01446 1.359253,0.01446 1.344789,0.01446 h 1.345141 l 1.359253,0.01446 1.345142,0.01446 1.344789,0.01446 h 1.359252 l 1.345142,0.01446 1.344789,0.01446 1.359605,0.01446 1.344789,0.01411 1.344789,0.01446 h 1.359605 l 1.344789,0.01446 1.345142,0.01446 h 1.359252 l 1.345142,0.01446 h 1.344789 l 1.359253,0.01446 h 1.345141 1.344789 l 1.359606,0.01446 h 1.344788 1.345142 1.359253 1.34514 1.34444 l 1.3596,-0.01446 h 1.34479 1.34514 l 1.35926,-0.01446 h 1.34514 1.34479 l 1.3596,-0.01446 h 1.34479 1.34514 l 1.35961,0.01446 h 1.34479 1.34479 l 1.35925,0.01446 1.34514,0.01446 h 1.34479 l 1.3596,0.01446 h 1.34479 l 1.34514,0.01446 h 1.35926 1.34514 l 1.34479,-0.01446 h 1.3596 l 1.34479,-0.01446 h 1.34479 l 1.35925,-0.01446 1.34514,-0.01446 h 1.34479 l 1.35961,-0.01446 1.34479,-0.01446 v 0.621975 H 19.355012 Z"
       style="fill:#927355;fill-opacity:1;fill-rule:nonzero;stroke:none;stroke-width:0.352778"
       id="path226" /><path
       d="m 19.355012,78.280694 1.345142,0.07232 1.359252,0.07232 1.345142,0.07232 1.344789,0.08678 1.359252,0.08643 1.345142,0.08714 1.344789,0.05786 1.359605,0.02893 1.344789,0.01446 1.345142,-0.02893 1.359252,-0.04339 1.344789,-0.08714 1.345142,-0.100894 1.359253,-0.130175 1.345141,-0.159103 1.344789,-0.159103 1.359253,-0.144639 1.345141,-0.129822 1.344789,-0.116064 1.359606,-0.101247 1.344788,-0.101247 1.345142,-0.08678 1.359253,-0.07232 1.344789,-0.07232 1.345141,-0.0575 1.359253,-0.05786 1.345141,-0.04339 1.344789,-0.02893 h 1.359253 1.345142 l 1.344788,0.01446 1.359606,0.04339 1.344789,0.04339 1.345141,0.07232 1.359253,0.07197 1.344789,0.07232 1.345141,0.07232 1.359253,0.101247 1.345142,0.115711 1.344789,0.116064 1.359252,0.129822 1.345142,0.144639 1.344789,0.159103 1.359605,0.18803 1.344789,0.202142 1.344789,0.217311 1.359605,0.216959 1.344789,0.216605 1.345142,0.231422 1.359252,0.231775 1.345142,0.245534 1.344789,0.245886 1.359253,0.246239 1.345141,0.259997 1.344789,0.245886 1.359606,0.245533 1.344788,0.246239 1.345142,0.245886 1.359253,0.23107 1.34514,0.231422 1.34444,0.231775 1.3596,0.216606 1.34479,0.216958 1.34514,0.216958 1.35926,0.202495 1.34514,0.216958 1.34479,0.188031 1.3596,0.187677 1.34479,0.159103 1.34514,0.159456 1.35961,0.144639 1.34479,0.129822 1.34479,0.115711 1.35925,0.115711 1.34514,0.08678 1.34479,0.08678 1.3596,0.08678 1.34479,0.08714 1.34514,0.07197 1.35926,0.08678 1.34514,0.05786 1.34479,0.07232 1.3596,0.05786 1.34479,0.05786 1.34479,0.05786 1.35925,0.04339 1.34514,0.05786 1.34479,0.04339 1.35961,0.0575 1.34479,0.04339 v -7.606601 l -1.34479,-0.01446 -1.35961,-0.01446 h -1.34479 l -1.34514,-0.01446 -1.35925,-0.01446 -1.34479,-0.01446 -1.34479,-0.01446 -1.3596,-0.01446 -1.34479,-0.02893 -1.34514,-0.02893 -1.35926,-0.01446 -1.34514,-0.04339 -1.34479,-0.02857 -1.3596,-0.04339 -1.34479,-0.02893 -1.34514,-0.04375 -1.35925,-0.04339 -1.34479,-0.04339 -1.34479,-0.02893 -1.35961,-0.04339 -1.34514,-0.02893 -1.34479,-0.02893 -1.3596,-0.04339 -1.34479,-0.02893 -1.34514,-0.02893 -1.35926,-0.02893 -1.34514,-0.02893 -1.34479,-0.02893 -1.3596,-0.02893 -1.34444,-0.02893 -1.34514,-0.02893 -1.359253,-0.04304 -1.345142,-0.02893 -1.344788,-0.02893 -1.359606,-0.02893 -1.344789,-0.04339 -1.345141,-0.02893 -1.359253,-0.05786 -1.344789,-0.04339 -1.345142,-0.05786 -1.359252,-0.07267 -1.345142,-0.05786 -1.344789,-0.05786 -1.359605,-0.07232 -1.344789,-0.07197 -1.344789,-0.05786 -1.359605,-0.04339 -1.344789,-0.02893 -1.345142,-0.02893 h -1.359252 l -1.344789,-0.01446 h -1.345142 -1.359253 l -1.345141,0.01446 -1.344789,0.02893 -1.359253,0.01446 -1.345141,0.01446 -1.344789,0.02893 -1.359606,0.02893 -1.344788,0.05785 -1.345142,0.0575 -1.359253,0.05786 -1.344789,0.08678 -1.345141,0.08714 -1.359253,0.08678 -1.345141,0.101248 -1.344789,0.101247 -1.359253,0.100894 -1.345142,0.115711 -1.344788,0.115711 -1.359606,0.130175 -1.344789,0.130175 -1.345141,0.144639 -1.359253,0.159103 -1.344789,0.159103 -1.345141,0.159103 -1.359253,0.130175 -1.345142,0.115358 -1.344789,0.07267 -1.359252,0.05786 -1.345142,0.02893 -1.344789,-0.01446 -1.359605,-0.02893 -1.344789,-0.05786 -1.345142,-0.08714 -1.359252,-0.08643 -1.344789,-0.08678 -1.345142,-0.07232 -1.359252,-0.07232 z"
       style="fill:#efce88;fill-opacity:1;fill-rule:nonzero;stroke:none;stroke-width:0.352778"
       id="path230" /><path
       d="m 19.355012,78.280694 1.345142,0.07232 1.359252,0.07232 1.345142,0.07232 1.344789,0.08678 1.359252,0.08643 1.345142,0.08714 1.344789,0.05786 1.359605,0.02893 1.344789,0.01446 1.345142,-0.02893 1.359252,-0.05786 1.344789,-0.07267 1.345142,-0.115358 1.359253,-0.130175 1.345141,-0.159103 1.344789,-0.159103 1.359253,-0.159103 1.345141,-0.144639 1.344789,-0.130175 1.359606,-0.130175 1.344788,-0.115711 1.345142,-0.115711 1.359253,-0.100894 1.344789,-0.101247 1.345141,-0.101248 1.359253,-0.08678 1.345141,-0.08714 1.344789,-0.08678 1.359253,-0.05786 1.345142,-0.0575 1.344788,-0.05785 1.359606,-0.02893 1.344789,-0.02893 1.345141,-0.01446 1.359253,-0.01446 1.344789,-0.02893 1.345141,-0.01446 h 1.359253 1.345142 l 1.344789,0.01446 h 1.359252 l 1.345142,0.02893 1.344789,0.02893 1.359605,0.04339 1.344789,0.05786 1.344789,0.07197 1.359605,0.07232 1.344789,0.05786 1.345142,0.05786 1.359252,0.07267 1.345142,0.05786 1.344789,0.04339 1.359253,0.05786 1.345141,0.02893 1.344789,0.04339 1.359606,0.02893 1.344788,0.02893 1.345142,0.02893 1.359253,0.04304 1.34514,0.02893 1.34444,0.02893 1.3596,0.02893 1.34479,0.02893 1.34514,0.02893 1.35926,0.02893 1.34514,0.02893 1.34479,0.02893 1.3596,0.04339 1.34479,0.02893 1.34514,0.02893 1.35961,0.04339 1.34479,0.02893 1.34479,0.04339 1.35925,0.04339 1.34514,0.04375 1.34479,0.02893 1.3596,0.04339 1.34479,0.02857 1.34514,0.04339 1.35926,0.01446 1.34514,0.02893 1.34479,0.02893 1.3596,0.01446 1.34479,0.01446 1.34479,0.01446 1.35925,0.01446 1.34514,0.01446 h 1.34479 l 1.35961,0.01446 1.34479,0.01446 v -4.757914 h -1.34479 -1.35961 -1.34479 -1.34514 -1.35925 -1.34479 -1.34479 -1.3596 -1.34479 -1.34514 -1.35926 -1.34514 -1.34479 -1.3596 -1.34479 -1.34514 -1.35925 -1.34479 -1.34479 -1.35961 -1.34514 -1.34479 -1.3596 -1.34479 -1.34514 -1.35926 -1.34514 -1.34479 -1.3596 -1.34444 H 98.99565 97.636397 96.291255 94.946467 93.586861 92.242072 90.896931 89.537678 88.192889 86.847747 85.488495 84.143353 82.798564 81.438959 80.09417 78.749381 77.389776 76.044987 74.699845 73.340593 71.995804 70.650662 69.291409 67.946268 66.601479 65.242226 63.897085 62.552296 61.19269 59.847902 58.50276 57.143507 55.798718 54.453577 53.094324 51.749183 50.404394 49.045141 47.699999 46.355211 44.995605 43.650816 42.305675 40.946422 39.601633 38.256492 36.897239 35.552097 34.207308 32.848056 31.502914 30.158125 28.79852 27.453731 26.108589 24.749337 23.404548 22.059406 20.700154 19.355012 Z"
       style="fill:#e0a52b;fill-opacity:1;fill-rule:nonzero;stroke:none;stroke-width:0.352778"
       id="path234" /><path
       d="m 139.48846,73.435962 h -1.35961 -1.34478 -1.34515 -1.35925 -1.34479 -1.34479 -1.3596 -1.34479 -1.34514 -1.35961 -1.34479 -1.34514 -1.3589 -1.34549 -1.34479 -1.35925 -1.34444 -1.34549 -1.35926 -1.34479 -1.34514 -1.35925 -1.34514 -1.34479 -1.35961 -1.34478 -1.34515 -1.3596 -1.34444 H 98.995923 97.636318 96.291176 94.946387 93.586782 92.241993 90.896851 89.537599 88.19281 86.848021 85.488415 84.143627 82.798485 81.43888 80.094444 78.749302 77.390049 76.044908 74.700119 73.340513 71.995725 70.650583 69.29133 67.946189 66.6014 65.242147 63.897005 62.552217 61.192611 59.847822 58.502681 57.143428 55.798639 54.45385 53.094245 51.749103 50.404314 49.045062 47.700273 46.354779 44.995526 43.650737 42.305948 40.946343 39.601201 38.256412 36.896807 35.552018 34.207229 32.847976 31.502835 30.158046 28.798441 27.453652 26.10851 24.749257 23.404469 22.059327 20.700074 19.354933 140.83325 Z"
       style="fill:#a2571d;fill-opacity:1;fill-rule:nonzero;stroke:none;stroke-width:0.352778"
       id="path238" /><path
       d="m 19.355012,73.435856 h 1.345142 1.359252 1.345142 1.344789 1.359252 1.345142 1.344789 1.359605 1.344789 1.345142 1.359252 1.344789 1.345142 1.359253 1.345141 1.344789 1.359253 1.345141 1.344789 1.359606 1.344788 1.345142 1.359253 1.344789 1.345141 1.359253 1.345141 1.344789 1.359253 1.345142 1.344788 1.359606 1.344789 1.345141 1.359253 1.344789 1.345141 1.359253 1.345142 1.344789 1.359252 1.345142 1.344789 1.359605 1.344789 1.344789 1.359605 1.344789 1.345142 1.359252 1.345142 1.344789 1.359253 1.345141 1.344789 1.359606 1.344788 1.345142 1.359253 1.34514 1.34444 1.3596 1.34479 1.34514 1.35926 1.34514 1.34479 1.3596 1.34479 1.34514 1.35961 1.34479 1.34479 1.35925 1.34514 1.34479 1.3596 1.34479 1.34514 1.35926 1.34514 1.34479 1.3596 1.34479 1.34479 1.35925 1.34514 1.34479 1.35961 1.34479 z"
       style="fill:none;stroke:#110f0d;stroke-width:0.3175;stroke-linecap:round;stroke-linejoin:round;stroke-miterlimit:4;stroke-dasharray:none;stroke-opacity:1"
       id="path242" /><path
       d="m 19.355012,14.890091 v 78.0542 H 140.83333"
       style="fill:none;stroke:#2f2d2e;stroke-width:0.250119;stroke-linecap:butt;stroke-linejoin:miter;stroke-miterlimit:10;stroke-dasharray:none;stroke-opacity:1"
       id="path246" /><path
       d="M 18.010042,73.435856 H 144.72464"
       style="fill:none;stroke:#ffffff;stroke-width:0.750006;stroke-linecap:round;stroke-linejoin:round;stroke-miterlimit:4;stroke-dasharray:none;stroke-opacity:1"
       id="path250" /><path
       d="M 18.010042,73.435856 H 145.24216"
       style="fill:none;stroke:#4f4c4d;stroke-width:0.250119;stroke-linecap:round;stroke-linejoin:round;stroke-miterlimit:4;stroke-dasharray:none;stroke-opacity:1"
       id="path254" /><path
       d="m 19.355012,24.830204 1.345142,-0.404989 1.359252,-0.375708 1.345142,-0.361597 1.344789,-0.318206 1.359252,-0.289278 1.345142,-0.274814 1.344789,0.01446 1.359605,0.303742 1.344789,0.593019 1.345142,0.881945 1.359252,1.186039 1.344789,1.446036 1.345142,1.735314 1.359253,1.995664 1.345141,2.285294 1.344789,2.270125 1.359253,2.15512 1.345141,2.024591 1.344789,1.879953 1.359606,1.764242 1.344788,1.634066 1.345142,1.504245 1.359253,1.373716 1.344789,1.243895 1.345141,1.113367 1.359253,1.113719 1.345141,1.069975 1.344789,1.026583 1.359253,0.983898 1.345142,0.9398 1.344788,0.896761 1.359606,0.853369 1.344789,0.809272 1.345141,0.752123 1.359253,0.723194 1.344789,0.78105 1.345141,0.809978 1.359253,0.809978 1.345142,0.838552 1.344789,0.85337 1.359252,0.867833 1.345142,0.838553 1.344789,0.809625 1.359605,0.766586 1.344789,0.665339 1.344789,0.636411 1.359605,0.563739 1.344789,0.5207 1.345142,0.462845 1.359252,0.390525 1.345142,0.390172 1.344789,0.390878 1.359253,0.390172 1.345141,0.390525 1.344789,0.361597 1.359606,0.376061 1.344788,0.361597 1.345142,0.346781 1.359253,0.333022 1.34514,0.317853 1.34444,0.318205 1.3596,0.289278 1.34479,0.289278 1.34514,0.288925 1.35926,0.260703 1.34514,0.26035 1.34479,0.245533 1.3596,0.245886 1.34479,0.216959 1.34514,0.202494 1.35961,0.173567 1.34479,0.173566 1.34479,0.159103 1.35925,0.130175 1.34514,0.130175 1.34479,0.115711 1.3596,0.115711 1.34479,0.100895 1.34514,0.101247 1.35926,0.101247 1.34514,0.08678 1.34479,0.08714 1.3596,0.07232 1.34479,0.07232 1.34479,0.05786 1.35925,0.0575 1.34514,0.07232 1.34479,0.05786 1.35961,0.05786 1.34479,0.07232"
       style="fill:none;stroke:#110f0d;stroke-width:0.499886;stroke-linecap:round;stroke-linejoin:round;stroke-miterlimit:4;stroke-dasharray:none;stroke-opacity:1"
       id="path270" /><g
       id="g336"
       transform="matrix(0.35277776,0,0,-0.35277778,5.4221917,97.174166)" /><g
       id="g358"
       transform="matrix(0.35277776,0,0,-0.35277778,5.4221917,97.174166)" /><g
       id="g366"
       transform="matrix(0.35277776,0,0,-0.35277778,5.4221917,97.174166)"><g
         clip-path="url(#clipPath362-4)"
         id="g364" /></g><text
       xml:space="preserve"
       style="font-style:normal;font-variant:normal;font-weight:normal;font-stretch:normal;font-size:3.175px;line-height:1.25;font-family:Arial;-inkscape-font-specification:'Arial, Normal';font-variant-ligatures:none;font-variant-caps:normal;font-variant-numeric:normal;font-variant-east-asian:normal;stroke-width:0.264583"
       x="142.70619"
       y="79.44442"
       id="text1651-1-74"><tspan
         sodipodi:role="line"
         id="tspan4301"
         x="142.70619"
         y="79.44442">Net GHG emissions</tspan></text><text
       xml:space="preserve"
       style="font-style:normal;font-variant:normal;font-weight:normal;font-stretch:normal;font-size:3.175px;line-height:1.25;font-family:Arial;-inkscape-font-specification:'Arial, Normal';font-variant-ligatures:none;font-variant-caps:normal;font-variant-numeric:normal;font-variant-east-asian:normal;stroke-width:0.264583"
       x="142.71107"
       y="166.73387"
       id="text1651-1-74-8"><tspan
         sodipodi:role="line"
         id="tspan4301-1"
         x="142.71107"
         y="166.73387">Gross GHG emissions</tspan></text><text
       xml:space="preserve"
       style="font-style:normal;font-variant:normal;font-weight:normal;font-stretch:normal;font-size:3.175px;line-height:1.25;font-family:Arial;-inkscape-font-specification:'Arial, Normal';font-variant-ligatures:none;font-variant-caps:normal;font-variant-numeric:normal;font-variant-east-asian:normal;stroke-width:0.264583"
       x="142.71107"
       y="186.29718"
       id="text1651-1-74-8-9"><tspan
         sodipodi:role="line"
         id="tspan10407"
         x="142.71107"
         y="186.29718">Gross CO₂ removals</tspan></text><text
       xml:space="preserve"
       style="font-style:normal;font-variant:normal;font-weight:normal;font-stretch:normal;font-size:3.175px;line-height:1.25;font-family:Arial;-inkscape-font-specification:'Arial, Normal';font-variant-ligatures:none;font-variant-caps:normal;font-variant-numeric:normal;font-variant-east-asian:normal;stroke-width:0.264583"
       x="59.018909"
       y="19.679726"
       id="text1651-1-74-3"><tspan
         sodipodi:role="line"
         id="tspan4301-5"
         x="59.018909"
         y="19.679726">Range of net GHG emissions in the NDCs</tspan></text><text
       xml:space="preserve"
       style="font-style:normal;font-variant:normal;font-weight:bold;font-stretch:normal;font-size:4.23333px;line-height:1.25;font-family:Arial;-inkscape-font-specification:'Arial, Bold';font-variant-ligatures:none;font-variant-caps:normal;font-variant-numeric:normal;font-variant-east-asian:normal;stroke-width:0.264583"
       x="18.146345"
       y="10.278094"
       id="text1651-1-74-3-5"><tspan
         sodipodi:role="line"
         id="tspan4301-5-9"
         x="18.146345"
         y="10.278094"
         style="font-style:normal;font-variant:normal;font-weight:bold;font-stretch:normal;font-size:4.23333px;font-family:Arial;-inkscape-font-specification:'Arial, Bold';font-variant-ligatures:none;font-variant-caps:normal;font-variant-numeric:normal;font-variant-east-asian:normal">(a) An assessment of the emissions gap combining emissions and removals</tspan></text><text
       xml:space="preserve"
       style="font-style:normal;font-variant:normal;font-weight:bold;font-stretch:normal;font-size:4.23333px;line-height:1.25;font-family:Arial;-inkscape-font-specification:'Arial, Bold';font-variant-ligatures:none;font-variant-caps:normal;font-variant-numeric:normal;font-variant-east-asian:normal;stroke-width:0.264583"
       x="18.146345"
       y="107.42056"
       id="text1651-1-74-3-5-6"><tspan
         sodipodi:role="line"
         id="tspan4301-5-9-9"
         x="18.146345"
         y="107.42056"
         style="font-style:normal;font-variant:normal;font-weight:bold;font-stretch:normal;font-size:4.23333px;font-family:Arial;-inkscape-font-specification:'Arial, Bold';font-variant-ligatures:none;font-variant-caps:normal;font-variant-numeric:normal;font-variant-east-asian:normal">(b) An assessment of the emissions gap separating emissions and removals</tspan></text><path
       d="m 114.31508,34.403331 h -2.67511 v 2.68747 h 2.67511 z"
       style="fill:#ebbbdd;fill-opacity:1;fill-rule:nonzero;stroke:none;stroke-width:0.352778"
       id="path206" /><path
       d="m 114.31508,39.376441 h -2.67511 v 2.68746 h 2.67511 z"
       style="fill:#a3c0d7;fill-opacity:1;fill-rule:nonzero;stroke:none;stroke-width:0.352778"
       id="path208" /><path
       d="m 114.31508,44.349201 h -2.67511 v 2.68746 h 2.67511 z"
       style="fill:#927355;fill-opacity:1;fill-rule:nonzero;stroke:none;stroke-width:0.352778"
       id="path210" /><path
       d="m 114.31508,49.322311 h -2.67511 v 2.6871 h 2.67511 z"
       style="fill:#e0a52b;fill-opacity:1;fill-rule:nonzero;stroke:none;stroke-width:0.352778"
       id="path212" /><path
       d="m 114.31508,54.295411 h -2.67511 v 2.68711 h 2.67511 z"
       style="fill:#efce88;fill-opacity:1;fill-rule:nonzero;stroke:none;stroke-width:0.352778"
       id="path214" /><text
       xml:space="preserve"
       style="font-style:normal;font-variant:normal;font-weight:normal;font-stretch:normal;font-size:2.82222px;line-height:1.25;font-family:Arial;-inkscape-font-specification:'Arial, Normal';font-variant-ligatures:none;font-variant-caps:normal;font-variant-numeric:normal;font-variant-east-asian:normal;stroke-width:0.264583"
       x="116.64095"
       y="36.757854"
       id="text1651-1-7"><tspan
         sodipodi:role="line"
         id="tspan4154"
         x="116.64095"
         y="36.757854">Emissions: Non-CO₂ GHGs</tspan></text><text
       xml:space="preserve"
       style="font-style:normal;font-variant:normal;font-weight:normal;font-stretch:normal;font-size:2.82222px;line-height:1.25;font-family:Arial;-inkscape-font-specification:'Arial, Normal';font-variant-ligatures:none;font-variant-caps:normal;font-variant-numeric:normal;font-variant-east-asian:normal;stroke-width:0.264583"
       x="116.64095"
       y="41.730831"
       id="text1651-1-7-0"><tspan
         sodipodi:role="line"
         id="tspan4183"
         x="116.64095"
         y="41.730831">Emissions: Fossil CO₂</tspan></text><text
       xml:space="preserve"
       style="font-style:normal;font-variant:normal;font-weight:normal;font-stretch:normal;font-size:2.82222px;line-height:1.25;font-family:Arial;-inkscape-font-specification:'Arial, Normal';font-variant-ligatures:none;font-variant-caps:normal;font-variant-numeric:normal;font-variant-east-asian:normal;stroke-width:0.264583"
       x="116.64095"
       y="46.406155"
       id="text1651-1-7-0-8"><tspan
         sodipodi:role="line"
         id="tspan4212"
         x="116.64095"
         y="46.406155">Emissions: Managed land</tspan></text><text
       xml:space="preserve"
       style="font-style:normal;font-variant:normal;font-weight:normal;font-stretch:normal;font-size:2.82222px;line-height:1.25;font-family:Arial;-inkscape-font-specification:'Arial, Normal';font-variant-ligatures:none;font-variant-caps:normal;font-variant-numeric:normal;font-variant-east-asian:normal;stroke-width:0.264583"
       x="116.64233"
       y="51.676098"
       id="text1651-1-7-0-8-8"><tspan
         sodipodi:role="line"
         id="tspan4272"
         x="116.64233"
         y="51.676098">Removals: Conventional CDR on land</tspan></text><text
       xml:space="preserve"
       style="font-style:normal;font-variant:normal;font-weight:normal;font-stretch:normal;font-size:2.82222px;line-height:1.25;font-family:Arial;-inkscape-font-specification:'Arial, Normal';font-variant-ligatures:none;font-variant-caps:normal;font-variant-numeric:normal;font-variant-east-asian:normal;stroke-width:0.264583"
       x="116.64233"
       y="56.649075"
       id="text1651-1-7-0-8-8-4"><tspan
         sodipodi:role="line"
         id="tspan4270"
         x="116.64233"
         y="56.649075">Removals: Novel CDR</tspan></text><path
       style="fill:none;stroke:#2f2d2e;stroke-width:0.264583px;stroke-linecap:butt;stroke-linejoin:miter;stroke-opacity:1"
       d="m 19.362244,93.069351 v 0.8"
       id="path1716" /><path
       style="fill:none;stroke:#2f2d2e;stroke-width:0.264583px;stroke-linecap:butt;stroke-linejoin:miter;stroke-opacity:1"
       d="m 32.844332,93.069351 v 0.8"
       id="path1716-1" /><path
       style="fill:none;stroke:#2f2d2e;stroke-width:0.264583px;stroke-linecap:butt;stroke-linejoin:miter;stroke-opacity:1"
       d="m 46.326421,93.069351 v 0.800007"
       id="path1716-8" /><path
       style="fill:none;stroke:#2f2d2e;stroke-width:0.264583px;stroke-linecap:butt;stroke-linejoin:miter;stroke-opacity:1"
       d="m 59.808509,93.069351 v 0.8"
       id="path1716-0" /><path
       style="fill:none;stroke:#2f2d2e;stroke-width:0.264583px;stroke-linecap:butt;stroke-linejoin:miter;stroke-opacity:1"
       d="m 73.290598,93.069351 v 0.8"
       id="path1716-6" /><path
       style="fill:none;stroke:#2f2d2e;stroke-width:0.264583px;stroke-linecap:butt;stroke-linejoin:miter;stroke-opacity:1"
       d="m 86.772686,93.069351 v 0.8"
       id="path1716-64" /><path
       style="fill:none;stroke:#2f2d2e;stroke-width:0.264583px;stroke-linecap:butt;stroke-linejoin:miter;stroke-opacity:1"
       d="m 100.25477,93.069351 v 0.8"
       id="path1716-4" /><path
       style="fill:none;stroke:#2f2d2e;stroke-width:0.264583px;stroke-linecap:butt;stroke-linejoin:miter;stroke-opacity:1"
       d="m 113.73686,93.069351 v 0.8"
       id="path1716-3" /><path
       style="fill:none;stroke:#2f2d2e;stroke-width:0.264583px;stroke-linecap:butt;stroke-linejoin:miter;stroke-opacity:1"
       d="m 127.21895,93.069351 v 0.8"
       id="path1716-9" /><path
       style="fill:none;stroke:#2f2d2e;stroke-width:0.264583px;stroke-linecap:butt;stroke-linejoin:miter;stroke-opacity:1"
       d="m 140.70104,93.069351 v 1"
       id="path1718" /><text
       xml:space="preserve"
       style="font-style:normal;font-variant:normal;font-weight:normal;font-stretch:normal;font-size:2.46944px;line-height:1.25;font-family:Arial;-inkscape-font-specification:'Arial, Normal';font-variant-ligatures:none;font-variant-caps:normal;font-variant-numeric:normal;font-variant-east-asian:normal;fill:#7f8182;fill-opacity:1;stroke:none;stroke-width:0.264583;stroke-opacity:1"
       x="16.637276"
       y="96.605843"
       id="text3018"><tspan
         sodipodi:role="line"
         id="tspan3016"
         style="font-style:normal;font-variant:normal;font-weight:normal;font-stretch:normal;font-size:2.46944px;font-family:Arial;-inkscape-font-specification:'Arial, Normal';font-variant-ligatures:none;font-variant-caps:normal;font-variant-numeric:normal;font-variant-east-asian:normal;fill:#7f8182;fill-opacity:1;stroke:none;stroke-width:0.264583;stroke-opacity:1"
         x="16.637276"
         y="96.605843">2010</tspan></text><text
       xml:space="preserve"
       style="font-style:normal;font-variant:normal;font-weight:normal;font-stretch:normal;font-size:2.46944px;line-height:1.25;font-family:Arial;-inkscape-font-specification:'Arial, Normal';font-variant-ligatures:none;font-variant-caps:normal;font-variant-numeric:normal;font-variant-east-asian:normal;fill:#7f8182;fill-opacity:1;stroke:none;stroke-width:0.264583;stroke-opacity:1"
       x="43.601452"
       y="96.605843"
       id="text3018-5"><tspan
         sodipodi:role="line"
         id="tspan3905"
         x="43.601452"
         y="96.605843">2030</tspan></text><text
       xml:space="preserve"
       style="font-style:normal;font-variant:normal;font-weight:normal;font-stretch:normal;font-size:2.46944px;line-height:1.25;font-family:Arial;-inkscape-font-specification:'Arial, Normal';font-variant-ligatures:none;font-variant-caps:normal;font-variant-numeric:normal;font-variant-east-asian:normal;fill:#7f8182;fill-opacity:1;stroke:none;stroke-width:0.264583;stroke-opacity:1"
       x="70.565628"
       y="96.605843"
       id="text3018-7"><tspan
         sodipodi:role="line"
         id="tspan3907"
         x="70.565628"
         y="96.605843">2050</tspan></text><text
       xml:space="preserve"
       style="font-style:normal;font-variant:normal;font-weight:normal;font-stretch:normal;font-size:2.46944px;line-height:1.25;font-family:Arial;-inkscape-font-specification:'Arial, Normal';font-variant-ligatures:none;font-variant-caps:normal;font-variant-numeric:normal;font-variant-east-asian:normal;fill:#7f8182;fill-opacity:1;stroke:none;stroke-width:0.264583;stroke-opacity:1"
       x="137.97607"
       y="96.605843"
       id="text3018-7-4"><tspan
         sodipodi:role="line"
         id="tspan3936"
         x="137.97607"
         y="96.605843">2100</tspan></text><path
       style="fill:none;stroke:#000000;stroke-width:0.5;stroke-linecap:butt;stroke-linejoin:miter;stroke-dasharray:none;stroke-opacity:1"
       d="m 45.727759,24.300485 v 7.258647"
       id="path4490" /><path
       d="m 19.355012,119.50575 1.345142,-0.46285 1.359252,-0.46284 1.345142,-0.43392 1.344789,-0.39017 1.359252,-0.37606 1.345142,-0.3616 1.344789,-0.0434 1.359605,0.26035 1.344789,0.59302 1.345142,0.91123 1.359252,1.22907 1.344789,1.53282 1.345142,1.83656 1.359253,2.1262 1.345141,2.42922 1.344789,2.44405 1.359253,2.28529 1.345141,2.15477 1.344789,2.00977 1.359606,1.86585 1.344788,1.73531 1.345142,1.59067 1.359253,1.44639 1.344789,1.31586 1.345141,1.15676 1.359253,1.17193 1.345141,1.11337 1.344789,1.05551 1.359253,0.99801 1.345142,0.9398 1.344788,0.86783 1.359606,0.82444 1.344789,0.75177 1.345141,0.69427 1.359253,0.65087 1.344789,0.70838 1.345141,0.72319 1.359253,0.7232 1.345142,0.72319 1.344789,0.7232 1.359252,0.7373 1.345142,0.70873 1.344789,0.65088 1.359605,0.57855 1.344789,0.4625 1.344789,0.41945 1.359605,0.34713 1.344789,0.28893 1.345142,0.23177 1.359252,0.17357 1.345142,0.14429 1.344789,0.13017 1.359253,0.14464 1.345141,0.14464 1.344789,0.11606 1.359606,0.11536 1.344788,0.11571 1.345142,0.10125 1.359253,0.10125 1.34514,0.10124 1.34444,0.0868 1.3596,0.0723 1.34479,0.072 1.34514,0.0579 1.35926,0.0579 1.34514,0.0582 1.34479,0.0579 1.3596,0.0579 1.34479,0.0434 1.34514,0.0434 1.35961,0.0434 1.34479,0.0434 1.34479,0.0289 1.35925,0.0289 1.34514,0.0289 1.34479,0.0289 1.3596,0.0286 1.34479,0.0289 1.34514,0.0145 1.35926,0.0289 1.34514,0.0145 1.34479,0.0145 1.3596,0.0145 1.34479,0.0145 1.34479,0.0145 1.35925,0.0145 h 1.34514 l 1.34479,0.0145 1.35961,0.0145 1.34479,0.0145 v 4.59881 l -1.34479,-0.0145 -1.35961,-0.0145 -1.34479,-0.0145 -1.34514,-0.0145 -1.35925,-0.0289 -1.34479,-0.0145 -1.34479,-0.0145 -1.3596,-0.0145 -1.34479,-0.0289 -1.34514,-0.0289 -1.35926,-0.0145 -1.34514,-0.0289 -1.34479,-0.0289 -1.3596,-0.043 -1.34479,-0.0289 -1.34514,-0.0289 -1.35925,-0.0434 -1.34479,-0.0289 -1.34479,-0.0289 -1.35961,-0.0434 -1.34514,-0.0434 -1.34479,-0.0289 -1.3596,-0.0434 -1.34479,-0.0434 -1.34514,-0.0434 -1.35926,-0.0434 -1.34514,-0.0434 -1.34479,-0.0582 -1.3596,-0.0723 -1.34444,-0.0864 -1.34514,-0.0868 -1.359253,-0.10125 -1.345142,-0.10125 -1.344788,-0.13017 -1.359606,-0.13018 -1.344789,-0.11536 -1.345141,-0.15945 -1.359253,-0.1591 -1.344789,-0.17357 -1.345142,-0.18768 -1.359252,-0.20249 -1.345142,-0.21731 -1.344789,-0.23107 -1.359605,-0.24589 -1.344789,-0.2607 -1.344789,-0.24554 -1.359605,-0.28927 -1.344789,-0.30339 -1.345142,-0.34749 -1.359252,-0.36124 -1.344789,-0.40499 -1.345142,-0.43392 -1.359253,-0.46284 -1.345141,-0.49142 -1.344789,-0.52106 -1.359253,-0.52034 -1.345141,-0.56409 -1.344789,-0.60749 -1.359606,-0.66498 -1.344788,-0.69427 -1.345142,-0.75212 -1.359253,-0.79516 -1.344789,-0.83891 -1.345141,-0.8823 -1.359253,-0.92533 -1.345141,-0.92569 -1.344789,-1.01212 -1.359253,-1.09926 -1.345142,-1.18604 -1.344788,-1.28693 -1.359606,-1.3596 -1.344789,-1.44604 -1.345141,-1.54728 -1.359253,-1.66335 -1.344789,-1.77871 -1.345141,-1.79317 -1.359253,-1.57656 -1.345142,-1.38783 -1.344789,-1.17157 -1.359252,-0.98319 -1.345142,-0.76659 -1.344789,-0.53516 -1.359605,-0.31821 -1.344789,-0.0723 -1.345142,0.17357 -1.359252,0.18803 -1.344789,0.23142 -1.345142,0.27481 -1.359252,0.33267 -1.345142,0.36125 z"
       style="fill:#ebbbdd;fill-opacity:1;fill-rule:nonzero;stroke:none;stroke-width:0.352778"
       id="path218-0" /><path
       d="m 19.412403,119.68268 1.345142,-0.46285 1.359252,-0.46284 1.345142,-0.43392 1.344789,-0.39017 1.359252,-0.37606 1.345142,-0.3616 1.344789,-0.0434 1.359605,0.26035 1.344789,0.59302 1.345142,0.91123 1.359252,1.22907 1.344789,1.53282 1.345142,1.83656 1.359253,2.1262 1.345141,2.42922 1.344789,2.44405 1.359253,2.28529 1.345141,2.15477 1.344789,2.00977 1.359606,1.86585 1.344788,1.73531 1.345142,1.59067 1.359253,1.44639 1.344789,1.31586 1.345141,1.15676 1.359253,1.17193 1.345141,1.11337 1.344789,1.05551 1.359253,0.99801 1.345142,0.9398 1.344788,0.86783 1.359606,0.82444 1.344789,0.75177 1.345141,0.69427 1.359253,0.65087 1.344789,0.70838 1.345141,0.72319 1.359253,0.7232 1.345142,0.72319 1.344789,0.7232 1.359252,0.7373 1.345142,0.70873 1.344789,0.65088 1.359605,0.57855 1.344789,0.4625 1.344789,0.41945 1.359605,0.34713 1.344789,0.28893 1.345142,0.23177 1.359252,0.17357 1.345142,0.14429 1.344789,0.13017 1.359253,0.14464 1.345141,0.14464 1.344789,0.11606 1.359606,0.11536 1.344788,0.11571 1.345142,0.10125 1.35925,0.10125 1.345142,0.10124 1.34444,0.0868 1.3596,0.0723 1.34479,0.072 1.34514,0.0579 1.35926,0.0579 1.34514,0.0582 1.34479,0.0579 1.3596,0.0579 1.34479,0.0434 1.34514,0.0434 1.35961,0.0434 1.34479,0.0434 1.34479,0.0289 1.35925,0.0289 1.34514,0.0289 1.34479,0.0289 1.3596,0.0286 1.34479,0.0289 1.34514,0.0145 1.35926,0.0289 1.34514,0.0145 1.34479,0.0145 1.3596,0.0145 1.34479,0.0145 1.34479,0.0145 1.35925,0.0145 h 1.34514 l 1.34479,0.0145 1.35961,0.0145 1.34479,0.0145"
       style="fill:none;fill-opacity:1;fill-rule:nonzero;stroke:#110f0d;stroke-width:0.352778;stroke-opacity:1"
       id="path218-0-8"
       sodipodi:nodetypes="ccccccccccccccccccccccccccccccccccccccccccccccccccccccccccccccccccccccccccccccccccccccccccc" /><path
       d="m 19.355012,135.0521 1.345142,-0.36124 1.359252,-0.33303 1.345142,-0.27446 1.344789,-0.23142 1.359252,-0.18838 1.345142,-0.17357 1.344789,0.0723 1.359605,0.31856 1.344789,0.53481 1.345142,0.76659 1.359252,0.98319 1.344789,1.17192 1.345142,1.38783 1.359253,1.57657 1.345141,1.79317 1.344789,1.7787 1.359253,1.66335 1.345141,1.54693 1.344789,1.44639 1.359606,1.3596 1.344788,1.28694 1.345142,1.18568 1.359253,1.09961 1.344789,1.01212 1.345141,0.92569 1.359253,0.92534 1.345141,0.88229 1.344789,0.83891 1.359253,0.79516 1.345142,0.75177 1.344788,0.69427 1.359606,0.66534 1.344789,0.60748 1.345141,0.56374 1.359253,0.5207 1.344789,0.5207 1.345141,0.49177 1.359253,0.46249 1.345142,0.43427 1.344789,0.40464 1.359252,0.36159 1.345142,0.34714 1.344789,0.30374 1.359605,0.28928 1.344789,0.24553 1.344789,0.26035 1.359605,0.24624 1.344789,0.23107 1.345142,0.21696 1.359252,0.20249 1.345142,0.18803 1.344789,0.17357 1.359253,0.1591 1.345141,0.1591 1.344789,0.11536 1.359606,0.13018 1.344788,0.13053 1.345142,0.10124 1.359253,0.10125 1.34514,0.0868 1.34444,0.0864 1.3596,0.0723 1.34479,0.0579 1.34514,0.0434 1.35926,0.0434 1.34514,0.0434 1.34479,0.0434 1.3596,0.0434 1.34479,0.0289 1.34514,0.0434 1.35961,0.0437 1.34479,0.0289 1.34479,0.0289 1.35925,0.0434 1.34514,0.0289 1.34479,0.0289 1.3596,0.043 1.34479,0.0289 1.34514,0.0289 1.35926,0.0145 1.34514,0.0289 1.34479,0.0289 1.3596,0.0145 1.34479,0.0145 1.34479,0.0145 1.35925,0.0289 1.34514,0.0145 1.34479,0.0145 1.35961,0.0145 1.34479,0.0145 v 2.32833 l -1.34479,0.0145 -1.35961,0.0145 h -1.34479 l -1.34514,0.0145 -1.35925,0.0145 h -1.34479 l -1.34479,0.0145 h -1.3596 l -1.34479,0.0145 h -1.34514 -1.35926 l -1.34514,-0.0145 h -1.34479 l -1.3596,-0.0145 h -1.34479 l -1.34514,-0.0145 -1.35925,-0.0145 h -1.34479 -1.34479 l -1.35961,-0.0145 h -1.34514 -1.34479 l -1.3596,0.0145 h -1.34479 -1.34514 l -1.35926,0.0145 h -1.34514 -1.34479 l -1.3596,0.0145 h -1.34444 -1.34514 -1.359253 -1.345142 -1.344788 l -1.359606,-0.0145 h -1.344789 -1.345141 l -1.359253,-0.0145 h -1.344789 l -1.345142,-0.0145 h -1.359252 l -1.345142,-0.0145 -1.344789,-0.0145 h -1.359605 l -1.344789,-0.0145 -1.344789,-0.0141 -1.359605,-0.0145 -1.344789,-0.0145 -1.345142,-0.0145 h -1.359252 l -1.344789,-0.0145 -1.345142,-0.0145 -1.359253,-0.0148 h -1.345141 l -1.344789,-0.0145 -1.359253,-0.0145 -1.345141,-0.0145 -1.344789,-0.0289 -1.359606,-0.0289 -1.344788,-0.0434 -1.345142,-0.0579 -1.359253,-0.0579 -1.344789,-0.0723 -1.345141,-0.0723 -1.359253,-0.0868 -1.345141,-0.072 -1.344789,-0.11571 -1.359253,-0.14464 -1.345142,-0.17392 -1.344788,-0.20214 -1.359606,-0.23142 -1.344789,-0.26035 -1.345141,-0.27481 -1.359253,-0.31821 -1.344789,-0.34678 -1.345141,-0.34749 -1.359253,-0.31785 -1.345142,-0.28928 -1.344789,-0.27481 -1.359252,-0.24589 -1.345142,-0.21696 -1.344789,-0.20249 -1.359605,-0.17357 -1.344789,-0.14463 -1.345142,-0.11572 -1.359252,-0.12982 -1.344789,-0.10125 -1.345142,-0.0868 -1.359252,-0.0723 -1.345142,-0.0437 z"
       style="fill:#a3c0d7;fill-opacity:1;fill-rule:nonzero;stroke:none;stroke-width:0.352778"
       id="path222-7" /><path
       d="m 19.355012,166.82447 1.345142,0.0434 1.359252,0.0723 1.345142,0.0868 1.344789,0.10124 1.359252,0.12983 1.345142,0.11606 1.344789,0.14464 1.359605,0.17357 1.344789,0.20214 1.345142,0.21695 1.359252,0.24624 1.344789,0.27446 1.345142,0.28928 1.359253,0.31821 1.345141,0.34713 1.344789,0.34678 1.359253,0.31856 1.345141,0.27446 1.344789,0.26035 1.359606,0.23178 1.344788,0.20214 1.345142,0.17356 1.359253,0.14464 1.344789,0.11572 1.345141,0.072 1.359253,0.0872 1.345141,0.0723 1.344789,0.0723 1.359253,0.0579 1.345142,0.0579 1.344788,0.0434 1.359606,0.0289 1.344789,0.0289 1.345141,0.0145 1.359253,0.0145 1.344789,0.0144 h 1.345141 l 1.359253,0.0145 1.345142,0.0145 1.344789,0.0145 h 1.359252 l 1.345142,0.0144 1.344789,0.0145 1.359605,0.0145 1.344789,0.0141 1.344789,0.0145 h 1.359605 l 1.344789,0.0145 1.345142,0.0144 h 1.359252 l 1.345142,0.0145 h 1.344789 l 1.359253,0.0145 h 1.345141 1.344789 l 1.359606,0.0145 h 1.344788 1.345142 1.359253 1.34514 1.34444 l 1.3596,-0.0145 h 1.34479 1.34514 l 1.35926,-0.0145 h 1.34514 1.34479 l 1.3596,-0.0145 h 1.34479 1.34514 l 1.35961,0.0145 h 1.34479 1.34479 l 1.35925,0.0145 1.34514,0.0145 h 1.34479 l 1.3596,0.0144 h 1.34479 l 1.34514,0.0145 h 1.35926 1.34514 l 1.34479,-0.0145 h 1.3596 l 1.34479,-0.0144 h 1.34479 l 1.35925,-0.0145 1.34514,-0.0145 h 1.34479 l 1.35961,-0.0145 1.34479,-0.0144 v 0.62197 H 19.355012 Z"
       style="fill:#927355;fill-opacity:1;fill-rule:nonzero;stroke:none;stroke-width:0.352778"
       id="path226-8" /><path
       d="m 19.355012,177.81536 1.345142,0.0723 1.359252,0.0723 1.345142,0.0723 1.344789,0.0868 1.359252,0.0864 1.345142,0.0871 1.344789,0.0579 1.359605,0.0289 1.344789,0.0145 1.345142,-0.0289 1.359252,-0.0434 1.344789,-0.0871 1.345142,-0.10089 1.359253,-0.13018 1.345141,-0.1591 1.344789,-0.1591 1.359253,-0.14464 1.345141,-0.12982 1.344789,-0.11607 1.359606,-0.10124 1.344788,-0.10125 1.345142,-0.0868 1.359253,-0.0723 1.344789,-0.0723 1.345141,-0.0575 1.359253,-0.0579 1.345141,-0.0434 1.344789,-0.0289 h 1.359253 1.345142 l 1.344788,0.0145 1.359606,0.0434 1.344789,0.0434 1.345141,0.0723 1.359253,0.072 1.344789,0.0723 1.345141,0.0723 1.359253,0.10125 1.345142,0.11571 1.344789,0.11606 1.359252,0.12982 1.345142,0.14464 1.344789,0.1591 1.359605,0.18803 1.344789,0.20215 1.344789,0.21731 1.359605,0.21696 1.344789,0.2166 1.345142,0.23142 1.359252,0.23178 1.345142,0.24553 1.344789,0.24589 1.359253,0.24624 1.345141,0.26 1.344789,0.24588 1.359606,0.24553 1.344788,0.24624 1.345142,0.24589 1.359253,0.23107 1.34514,0.23142 1.34444,0.23178 1.3596,0.2166 1.34479,0.21696 1.34514,0.21696 1.35926,0.20249 1.34514,0.21696 1.34479,0.18803 1.3596,0.18768 1.34479,0.1591 1.34514,0.15946 1.35961,0.14464 1.34479,0.12982 1.34479,0.11571 1.35925,0.11571 1.34514,0.0868 1.34479,0.0868 1.3596,0.0868 1.34479,0.0871 1.34514,0.072 1.35926,0.0868 1.34514,0.0579 1.34479,0.0723 1.3596,0.0579 1.34479,0.0579 1.34479,0.0579 1.35925,0.0434 1.34514,0.0579 1.34479,0.0434 1.35961,0.0575 1.34479,0.0434 v -7.6066 l -1.34479,-0.0145 -1.35961,-0.0145 h -1.34479 l -1.34514,-0.0145 -1.35925,-0.0145 -1.34479,-0.0145 -1.34479,-0.0145 -1.3596,-0.0145 -1.34479,-0.0289 -1.34514,-0.0289 -1.35926,-0.0145 -1.34514,-0.0434 -1.34479,-0.0286 -1.3596,-0.0434 -1.34479,-0.0289 -1.34514,-0.0437 -1.35925,-0.0434 -1.34479,-0.0434 -1.34479,-0.0289 -1.35961,-0.0434 -1.34514,-0.0289 -1.34479,-0.0289 -1.3596,-0.0434 -1.34479,-0.0289 -1.34514,-0.0289 -1.35926,-0.0289 -1.34514,-0.0289 -1.34479,-0.0289 -1.3596,-0.0289 -1.34444,-0.0289 -1.34514,-0.0289 -1.359253,-0.043 -1.345142,-0.0289 -1.344788,-0.0289 -1.359606,-0.0289 -1.344789,-0.0434 -1.345141,-0.0289 -1.359253,-0.0579 -1.344789,-0.0434 -1.345142,-0.0579 -1.359252,-0.0727 -1.345142,-0.0579 -1.344789,-0.0579 -1.359605,-0.0723 -1.344789,-0.072 -1.344789,-0.0579 -1.359605,-0.0434 -1.344789,-0.0289 -1.345142,-0.0289 h -1.359252 l -1.344789,-0.0145 h -1.345142 -1.359253 l -1.345141,0.0145 -1.344789,0.0289 -1.359253,0.0145 -1.345141,0.0145 -1.344789,0.0289 -1.359606,0.0289 -1.344788,0.0579 -1.345142,0.0575 -1.359253,0.0579 -1.344789,0.0868 -1.345141,0.0871 -1.359253,0.0868 -1.345141,0.10125 -1.344789,0.10125 -1.359253,0.10089 -1.345142,0.11571 -1.344788,0.11571 -1.359606,0.13018 -1.344789,0.13017 -1.345141,0.14464 -1.359253,0.1591 -1.344789,0.15911 -1.345141,0.1591 -1.359253,0.13017 -1.345142,0.11536 -1.344789,0.0727 -1.359252,0.0579 -1.345142,0.0289 -1.344789,-0.0145 -1.359605,-0.0289 -1.344789,-0.0579 -1.345142,-0.0871 -1.359252,-0.0864 -1.344789,-0.0868 -1.345142,-0.0723 -1.359252,-0.0723 z"
       style="fill:#efce88;fill-opacity:1;fill-rule:nonzero;stroke:none;stroke-width:0.352778"
       id="path230-3" /><path
       d="m 19.355012,177.81536 1.345142,0.0723 1.359252,0.0723 1.345142,0.0723 1.344789,0.0868 1.359252,0.0864 1.345142,0.0871 1.344789,0.0579 1.359605,0.0289 1.344789,0.0145 1.345142,-0.0289 1.359252,-0.0579 1.344789,-0.0727 1.345142,-0.11536 1.359253,-0.13017 1.345141,-0.1591 1.344789,-0.15911 1.359253,-0.1591 1.345141,-0.14464 1.344789,-0.13017 1.359606,-0.13018 1.344788,-0.11571 1.345142,-0.11571 1.359253,-0.10089 1.344789,-0.10125 1.345141,-0.10125 1.359253,-0.0868 1.345141,-0.0871 1.344789,-0.0868 1.359253,-0.0579 1.345142,-0.0575 1.344788,-0.0579 1.359606,-0.0289 1.344789,-0.0289 1.345141,-0.0145 1.359253,-0.0145 1.344789,-0.0289 1.345141,-0.0145 h 1.359253 1.345142 l 1.344789,0.0145 h 1.359252 l 1.345142,0.0289 1.344789,0.0289 1.359605,0.0434 1.344789,0.0579 1.344789,0.072 1.359605,0.0723 1.344789,0.0579 1.345142,0.0579 1.359252,0.0727 1.345142,0.0579 1.344789,0.0434 1.359253,0.0579 1.345141,0.0289 1.344789,0.0434 1.359606,0.0289 1.344788,0.0289 1.345142,0.0289 1.359253,0.043 1.34514,0.0289 1.34444,0.0289 1.3596,0.0289 1.34479,0.0289 1.34514,0.0289 1.35926,0.0289 1.34514,0.0289 1.34479,0.0289 1.3596,0.0434 1.34479,0.0289 1.34514,0.0289 1.35961,0.0434 1.34479,0.0289 1.34479,0.0434 1.35925,0.0434 1.34514,0.0437 1.34479,0.0289 1.3596,0.0434 1.34479,0.0286 1.34514,0.0434 1.35926,0.0145 1.34514,0.0289 1.34479,0.0289 1.3596,0.0145 1.34479,0.0145 1.34479,0.0145 1.35925,0.0145 1.34514,0.0145 h 1.34479 l 1.35961,0.0145 1.34479,0.0145 v -4.75791 h -1.34479 -1.35961 -1.34479 -1.34514 -1.35925 -1.34479 -1.34479 -1.3596 -1.34479 -1.34514 -1.35926 -1.34514 -1.34479 -1.3596 -1.34479 -1.34514 -1.35925 -1.34479 -1.34479 -1.35961 -1.34514 -1.34479 -1.3596 -1.34479 -1.34514 -1.35926 -1.34514 -1.34479 -1.3596 -1.34444 H 98.99565 97.636397 96.291255 94.946467 93.586861 92.242072 90.896931 89.537678 88.192889 86.847747 85.488495 84.143353 82.798564 81.438959 80.09417 78.749381 77.389776 76.044987 74.699845 73.340593 71.995804 70.650662 69.291409 67.946268 66.601479 65.242226 63.897085 62.552296 61.19269 59.847902 58.50276 57.143507 55.798718 54.453577 53.094324 51.749183 50.404394 49.045141 47.699999 46.355211 44.995605 43.650816 42.305675 40.946422 39.601633 38.256492 36.897239 35.552097 34.207308 32.848056 31.502914 30.158125 28.79852 27.453731 26.108589 24.749337 23.404548 22.059406 20.700154 19.355012 Z"
       style="fill:#e0a52b;fill-opacity:1;fill-rule:nonzero;stroke:none;stroke-width:0.352778"
       id="path234-7" /><path
       d="m 139.48846,172.97063 h -1.35961 -1.34478 -1.34515 -1.35925 -1.34479 -1.34479 -1.3596 -1.34479 -1.34514 -1.35961 -1.34479 -1.34514 -1.3589 -1.34549 -1.34479 -1.35925 -1.34444 -1.34549 -1.35926 -1.34479 -1.34514 -1.35925 -1.34514 -1.34479 -1.35961 -1.34478 -1.34515 -1.3596 -1.34444 H 98.995923 97.636318 96.291176 94.946387 93.586782 92.241993 90.896851 89.537599 88.19281 86.848021 85.488415 84.143627 82.798485 81.43888 80.094444 78.749302 77.390049 76.044908 74.700119 73.340513 71.995725 70.650583 69.29133 67.946189 66.6014 65.242147 63.897005 62.552217 61.192611 59.847822 58.502681 57.143428 55.798639 54.45385 53.094245 51.749103 50.404314 49.045062 47.700273 46.354779 44.995526 43.650737 42.305948 40.946343 39.601201 38.256412 36.896807 35.552018 34.207229 32.847976 31.502835 30.158046 28.798441 27.453652 26.10851 24.749257 23.404469 22.059327 20.700074 19.354933 140.83325 Z"
       style="fill:#a2571d;fill-opacity:1;fill-rule:nonzero;stroke:none;stroke-width:0.352778"
       id="path238-0" /><path
       d="m 19.355012,172.97052 h 1.345142 1.359252 1.345142 1.344789 1.359252 1.345142 1.344789 1.359605 1.344789 1.345142 1.359252 1.344789 1.345142 1.359253 1.345141 1.344789 1.359253 1.345141 1.344789 1.359606 1.344788 1.345142 1.359253 1.344789 1.345141 1.359253 1.345141 1.344789 1.359253 1.345142 1.344788 1.359606 1.344789 1.345141 1.359253 1.344789 1.345141 1.359253 1.345142 1.344789 1.359252 1.345142 1.344789 1.359605 1.344789 1.344789 1.359605 1.344789 1.345142 1.359252 1.345142 1.344789 1.359253 1.345141 1.344789 1.359606 1.344788 1.345142 1.359253 1.34514 1.34444 1.3596 1.34479 1.34514 1.35926 1.34514 1.34479 1.3596 1.34479 1.34514 1.35961 1.34479 1.34479 1.35925 1.34514 1.34479 1.3596 1.34479 1.34514 1.35926 1.34514 1.34479 1.3596 1.34479 1.34479 1.35925 1.34514 1.34479 1.35961 1.34479 z"
       style="fill:none;stroke:#110f0d;stroke-width:0.3175;stroke-linecap:round;stroke-linejoin:round;stroke-miterlimit:4;stroke-dasharray:none;stroke-opacity:1"
       id="path242-1" /><path
       d="m 19.355012,114.42476 v 78.0542 H 140.83333"
       style="fill:none;stroke:#2f2d2e;stroke-width:0.250119;stroke-linecap:butt;stroke-linejoin:miter;stroke-miterlimit:10;stroke-dasharray:none;stroke-opacity:1"
       id="path246-6" /><path
       d="M 18.010042,172.97052 H 144.72464"
       style="fill:none;stroke:#ffffff;stroke-width:0.750006;stroke-linecap:round;stroke-linejoin:round;stroke-miterlimit:4;stroke-dasharray:none;stroke-opacity:1"
       id="path250-6" /><path
       d="M 18.010042,172.97052 H 145.24216"
       style="fill:none;stroke:#4f4c4d;stroke-width:0.250119;stroke-linecap:round;stroke-linejoin:round;stroke-miterlimit:4;stroke-dasharray:none;stroke-opacity:1"
       id="path254-2" /><text
       xml:space="preserve"
       style="font-style:normal;font-variant:normal;font-weight:normal;font-stretch:normal;font-size:3.175px;line-height:1.25;font-family:Arial;-inkscape-font-specification:'Arial, Normal';font-variant-ligatures:none;font-variant-caps:normal;font-variant-numeric:normal;font-variant-east-asian:normal;stroke-width:0.264583"
       x="51.99807"
       y="131.91199"
       id="text1651-1-74-9-7"><tspan
         sodipodi:role="line"
         id="tspan4301-3-4"
         x="51.99807"
         y="131.91199">The emissions gap</tspan></text><text
       xml:space="preserve"
       style="font-style:normal;font-variant:normal;font-weight:normal;font-stretch:normal;font-size:3.175px;line-height:1.25;font-family:Arial;-inkscape-font-specification:'Arial, Normal';font-variant-ligatures:none;font-variant-caps:normal;font-variant-numeric:normal;font-variant-east-asian:normal;stroke-width:0.264583"
       x="21.830698"
       y="184.98778"
       id="text1651-1-74-3-3-9"><tspan
         sodipodi:role="line"
         id="tspan4301-5-6-8"
         x="21.830698"
         y="184.98778">Range of gross CO₂ </tspan><tspan
         sodipodi:role="line"
         x="21.830698"
         y="188.95653"
         id="tspan11181">removals in the NDCs</tspan></text><text
       xml:space="preserve"
       style="font-style:normal;font-variant:normal;font-weight:normal;font-stretch:normal;font-size:3.175px;line-height:1.25;font-family:Arial;-inkscape-font-specification:'Arial, Normal';font-variant-ligatures:none;font-variant-caps:normal;font-variant-numeric:normal;font-variant-east-asian:normal;stroke-width:0.264583"
       x="60.039505"
       y="185.07378"
       id="text1651-1-74-3-3-9-7"><tspan
         sodipodi:role="line"
         x="60.039505"
         y="185.07378"
         id="tspan11181-7">The CDR gap</tspan></text><path
       style="fill:none;stroke:#2f2d2e;stroke-width:0.264583px;stroke-linecap:butt;stroke-linejoin:miter;stroke-opacity:1"
       d="m 19.362244,192.60402 v 0.8"
       id="path1716-68" /><path
       style="fill:none;stroke:#2f2d2e;stroke-width:0.264583px;stroke-linecap:butt;stroke-linejoin:miter;stroke-opacity:1"
       d="m 32.844332,192.60402 v 0.8"
       id="path1716-1-7" /><path
       style="fill:none;stroke:#2f2d2e;stroke-width:0.264583px;stroke-linecap:butt;stroke-linejoin:miter;stroke-opacity:1"
       d="m 46.326421,192.60402 v 0.80001"
       id="path1716-8-0" /><path
       style="fill:none;stroke:#2f2d2e;stroke-width:0.264583px;stroke-linecap:butt;stroke-linejoin:miter;stroke-opacity:1"
       d="m 59.808509,192.60402 v 0.8"
       id="path1716-0-4" /><path
       style="fill:none;stroke:#2f2d2e;stroke-width:0.264583px;stroke-linecap:butt;stroke-linejoin:miter;stroke-opacity:1"
       d="m 73.290598,192.60402 v 0.8"
       id="path1716-6-4" /><path
       style="fill:none;stroke:#2f2d2e;stroke-width:0.264583px;stroke-linecap:butt;stroke-linejoin:miter;stroke-opacity:1"
       d="m 86.772686,192.60402 v 0.8"
       id="path1716-64-2" /><path
       style="fill:none;stroke:#2f2d2e;stroke-width:0.264583px;stroke-linecap:butt;stroke-linejoin:miter;stroke-opacity:1"
       d="m 100.25477,192.60402 v 0.8"
       id="path1716-4-6" /><path
       style="fill:none;stroke:#2f2d2e;stroke-width:0.264583px;stroke-linecap:butt;stroke-linejoin:miter;stroke-opacity:1"
       d="m 113.73686,192.60402 v 0.8"
       id="path1716-3-3" /><path
       style="fill:none;stroke:#2f2d2e;stroke-width:0.264583px;stroke-linecap:butt;stroke-linejoin:miter;stroke-opacity:1"
       d="m 127.21895,192.60402 v 0.8"
       id="path1716-9-6" /><text
       xml:space="preserve"
       style="font-style:normal;font-variant:normal;font-weight:normal;font-stretch:normal;font-size:2.46944px;line-height:1.25;font-family:Arial;-inkscape-font-specification:'Arial, Normal';font-variant-ligatures:none;font-variant-caps:normal;font-variant-numeric:normal;font-variant-east-asian:normal;fill:#7f8182;fill-opacity:1;stroke:none;stroke-width:0.264583;stroke-opacity:1"
       x="16.637276"
       y="196.14062"
       id="text3018-79"><tspan
         sodipodi:role="line"
         id="tspan3016-1"
         style="font-style:normal;font-variant:normal;font-weight:normal;font-stretch:normal;font-size:2.46944px;font-family:Arial;-inkscape-font-specification:'Arial, Normal';font-variant-ligatures:none;font-variant-caps:normal;font-variant-numeric:normal;font-variant-east-asian:normal;fill:#7f8182;fill-opacity:1;stroke:none;stroke-width:0.264583;stroke-opacity:1"
         x="16.637276"
         y="196.14062">2010</tspan></text><text
       xml:space="preserve"
       style="font-style:normal;font-variant:normal;font-weight:normal;font-stretch:normal;font-size:3.52778px;line-height:1.25;font-family:Arial;-inkscape-font-specification:'Arial, Normal';font-variant-ligatures:none;font-variant-caps:normal;font-variant-numeric:normal;font-variant-east-asian:normal;fill:#2f2d2e;fill-opacity:1;stroke:none;stroke-width:0.264583;stroke-opacity:1"
       x="15.001176"
       y="74.698502"
       id="text3018-79-4"><tspan
         sodipodi:role="line"
         id="tspan13600"
         x="15.001176"
         y="74.698502">0</tspan></text><text
       xml:space="preserve"
       style="font-style:normal;font-variant:normal;font-weight:normal;font-stretch:normal;font-size:2.46944px;line-height:1.25;font-family:Arial;-inkscape-font-specification:'Arial, Normal';font-variant-ligatures:none;font-variant-caps:normal;font-variant-numeric:normal;font-variant-east-asian:normal;fill:#7f8182;fill-opacity:1;stroke:none;stroke-width:0.264583;stroke-opacity:1"
       x="43.601452"
       y="196.14062"
       id="text3018-5-3"><tspan
         sodipodi:role="line"
         id="tspan3905-8"
         x="43.601452"
         y="196.14062">2030</tspan></text><text
       xml:space="preserve"
       style="font-style:normal;font-variant:normal;font-weight:normal;font-stretch:normal;font-size:2.46944px;line-height:1.25;font-family:Arial;-inkscape-font-specification:'Arial, Normal';font-variant-ligatures:none;font-variant-caps:normal;font-variant-numeric:normal;font-variant-east-asian:normal;fill:#7f8182;fill-opacity:1;stroke:none;stroke-width:0.264583;stroke-opacity:1"
       x="70.565628"
       y="196.14062"
       id="text3018-7-8"><tspan
         sodipodi:role="line"
         id="tspan3907-5"
         x="70.565628"
         y="196.14062">2050</tspan></text><text
       xml:space="preserve"
       style="font-style:normal;font-variant:normal;font-weight:normal;font-stretch:normal;font-size:2.46944px;line-height:1.25;font-family:Arial;-inkscape-font-specification:'Arial, Normal';font-variant-ligatures:none;font-variant-caps:normal;font-variant-numeric:normal;font-variant-east-asian:normal;fill:#7f8182;fill-opacity:1;stroke:none;stroke-width:0.264583;stroke-opacity:1"
       x="137.97606"
       y="196.14062"
       id="text3018-7-4-0"><tspan
         sodipodi:role="line"
         id="tspan3936-6"
         x="137.97606"
         y="196.14062">2100</tspan></text><path
       style="fill:none;stroke:#000000;stroke-width:0.5;stroke-linecap:butt;stroke-linejoin:miter;stroke-dasharray:none;stroke-opacity:1"
       d="m 45.727759,120.13096 v 7.25865"
       id="path4490-72" /><path
       style="fill:none;stroke:#000000;stroke-width:0.5;stroke-linecap:butt;stroke-linejoin:miter;stroke-dasharray:none;stroke-opacity:1"
       d="m 46.32642,173.23645 v 1.58619"
       id="path4490-72-2" /><path
       style="fill:#808080;stroke:#4f4c4d;stroke-width:0.5;stroke-linecap:butt;stroke-linejoin:miter;stroke-dasharray:none;stroke-opacity:1;marker-start:url(#marker7795-6);marker-end:url(#Arrow4-0)"
       d="m 50.526467,124.42851 v 13.43735"
       id="path4490-7-7" /><path
       style="fill:#808080;stroke:#4f4c4d;stroke-width:0.5;stroke-linecap:butt;stroke-linejoin:miter;stroke-dasharray:none;stroke-opacity:1;marker-start:url(#marker7795-6-5);marker-end:url(#Arrow4-0-2)"
       d="m 50.74492,174.08655 v 2.50087"
       id="path4490-7-7-4" /><path
       style="fill:none;stroke:#4f4c4d;stroke-width:0.264583px;stroke-linecap:butt;stroke-linejoin:miter;stroke-dasharray:0.529166, 0.264583;stroke-dashoffset:0;stroke-opacity:1"
       d="m 46.015926,123.74829 h 4.568307"
       id="path5962-3" /><path
       style="fill:none;stroke:#4f4c4d;stroke-width:0.264583px;stroke-linecap:butt;stroke-linejoin:miter;stroke-dasharray:0.529166, 0.264583;stroke-dashoffset:0;stroke-opacity:1"
       d="m 46.015926,138.54608 h 4.568307"
       id="path5962-1-2" /><text
       xml:space="preserve"
       style="font-style:normal;font-variant:normal;font-weight:normal;font-stretch:normal;font-size:3.175px;line-height:1.25;font-family:Arial;-inkscape-font-specification:'Arial, Normal';font-variant-ligatures:none;font-variant-caps:normal;font-variant-numeric:normal;font-variant-east-asian:normal;stroke-width:0.264583"
       x="52.041843"
       y="36.081398"
       id="text1651-1-74-9-7-1"><tspan
         sodipodi:role="line"
         id="tspan4301-3-4-5"
         x="52.041843"
         y="36.081398">The emissions gap</tspan></text><path
       style="fill:#808080;stroke:#4f4c4d;stroke-width:0.5;stroke-linecap:butt;stroke-linejoin:miter;stroke-dasharray:none;stroke-opacity:1;marker-start:url(#marker7795-6-4);marker-end:url(#Arrow4-0-6)"
       d="m 50.570235,28.598028 v 13.43735"
       id="path4490-7-7-2" /><path
       style="fill:none;stroke:#4f4c4d;stroke-width:0.264583px;stroke-linecap:butt;stroke-linejoin:miter;stroke-dasharray:0.529166, 0.264583;stroke-dashoffset:0;stroke-opacity:1"
       d="m 46.059694,27.917808 h 4.568307"
       id="path5962-3-0" /><path
       style="fill:none;stroke:#4f4c4d;stroke-width:0.264583px;stroke-linecap:butt;stroke-linejoin:miter;stroke-dasharray:0.529166, 0.264583;stroke-dashoffset:0;stroke-opacity:1"
       d="m 46.059694,42.715598 h 4.568307"
       id="path5962-1-2-6" /><path
       d="m 43.645124,177.19108 -1.345141,0.14464 -1.359253,0.1591 -1.344789,0.15911 -1.345141,0.1591 -1.359253,0.13017 -1.345142,0.11536 -1.344789,0.0727 -1.359252,0.0579 -1.345142,0.0289 -1.344789,-0.0145 -1.359605,-0.0289 -1.344789,-0.0579 -1.345142,-0.0871 -1.359252,-0.0864 -1.344789,-0.0868 -1.345142,-0.0723 -1.359252,-0.0723 -1.345142,-0.0728 1.345142,0.0723 1.359252,0.0723 1.345142,0.0723 1.344789,0.0868 1.359252,0.0864 1.345142,0.0871 1.344789,0.0579 1.359605,0.0289 1.344789,0.0145 1.345142,-0.0289 1.359252,-0.0434 1.344789,-0.0871 1.345142,-0.10089 1.359253,-0.13018 1.345141,-0.1591 1.344789,-0.1591 1.359253,-0.14464 1.345141,-0.12982 1.344789,-0.11607 1.359606,-0.10124 1.344788,-0.10125 1.345142,-0.0868 1.359253,-0.0723 1.344789,-0.0723 1.345141,-0.0575 1.359253,-0.0579 1.345141,-0.0434 1.344789,-0.0289 h 1.359253 1.345142 l 1.344788,0.0145 1.359606,0.0434 1.344789,0.0434 1.345141,0.0723 1.359253,0.072 1.344789,0.0723 1.345141,0.0723 1.359253,0.10125 1.345142,0.11571 1.344789,0.11606 1.359252,0.12982 1.345142,0.14464 1.344789,0.1591 1.359605,0.18803 1.344789,0.20215 1.344789,0.21731 1.359605,0.21696 1.344789,0.2166 1.345142,0.23142 1.359252,0.23178 1.345142,0.24553 1.344789,0.24589 1.359253,0.24624 1.345141,0.26 1.344789,0.24588 1.359606,0.24553 1.344788,0.24624 1.345142,0.24589 1.359255,0.23107 1.34514,0.23142 1.34444,0.23178 1.3596,0.2166 1.34479,0.21696 1.34514,0.21696 1.35926,0.20249 1.34514,0.21696 1.34479,0.18803 1.3596,0.18768 1.34479,0.1591 1.34514,0.15946 1.35961,0.14464 1.34479,0.12982 1.34479,0.11571 1.35925,0.11571 1.34514,0.0868 1.34479,0.0868 1.3596,0.0868 1.34479,0.0871 1.34514,0.072 1.35926,0.0868 1.34514,0.0579 1.34479,0.0723 1.3596,0.0579 1.34479,0.0579 1.34479,0.0579 1.35925,0.0434 1.34514,0.0579 1.34479,0.0434 1.35961,0.0575 1.34479,0.0434"
       style="fill:none;fill-opacity:1;fill-rule:nonzero;stroke:#110f0d;stroke-width:0.352778;stroke-opacity:1"
       id="path230-3-7"
       sodipodi:nodetypes="ccccccccccccccccccccccccccccccccccccccccccccccccccccccccccccccccccccccccccccccccccccccccccccccccccccccccccccc" /><path
       style="fill:none;stroke:#4f4c4d;stroke-width:0.264583px;stroke-linecap:butt;stroke-linejoin:miter;stroke-dasharray:0.529166, 0.264583;stroke-dashoffset:0;stroke-opacity:1"
       d="m 46.629117,173.86054 h 3.845205"
       id="path5962-3-9" /><path
       style="fill:none;stroke:#4f4c4d;stroke-width:0.264583px;stroke-linecap:butt;stroke-linejoin:miter;stroke-opacity:1;marker-start:url(#Dot)"
       d="m 53.422747,175.08397 9.482325,6.5191"
       id="path11637" /><path
       style="fill:none;stroke:#4f4c4d;stroke-width:0.264583px;stroke-linecap:butt;stroke-linejoin:miter;stroke-opacity:1;marker-start:url(#Dot-68)"
       d="M 46.750857,26.817886 57.680973,18.922595"
       id="path11637-76"
       sodipodi:nodetypes="cc" /><text
       xml:space="preserve"
       style="font-style:normal;font-variant:normal;font-weight:normal;font-stretch:normal;font-size:3.175px;line-height:1.25;font-family:Arial;-inkscape-font-specification:'Arial, Normal';font-variant-ligatures:none;font-variant-caps:normal;font-variant-numeric:normal;font-variant-east-asian:normal;stroke-width:0.264583"
       x="58.779446"
       y="117.15553"
       id="text1651-1-74-3-2"><tspan
         sodipodi:role="line"
         id="tspan4301-5-8"
         x="58.779446"
         y="117.15553">Range of gross GHG emissions in the NDCs</tspan></text><path
       style="fill:none;stroke:#4f4c4d;stroke-width:0.264583px;stroke-linecap:butt;stroke-linejoin:miter;stroke-opacity:1;marker-start:url(#Dot-68-8)"
       d="m 46.750857,122.37797 10.810384,-6.21904"
       id="path11637-76-8"
       sodipodi:nodetypes="cc" /><path
       style="fill:none;stroke:#4f4c4d;stroke-width:0.264583px;stroke-linecap:butt;stroke-linejoin:miter;stroke-opacity:1;marker-start:url(#Dot-6)"
       d="m 45.032558,174.08444 -8.805018,7.36574"
       id="path11637-7"
       sodipodi:nodetypes="cc" /><text
       xml:space="preserve"
       style="font-size:3.52777px;line-height:1.25;font-family:Arial;-inkscape-font-specification:'Arial, Normal';font-variant-ligatures:none;stroke-width:0.264583"
       x="-38.562702"
       y="16.751286"
       id="text13349"
       transform="rotate(-90)"><tspan
         sodipodi:role="line"
         id="tspan13347"
         style="stroke-width:0.264583"
         x="-38.562702"
         y="16.751286">GHG emissions</tspan></text><g
       id="g13988"
       transform="translate(1.2651719,-20.637503)"><text
         xml:space="preserve"
         style="font-style:normal;font-variant:normal;font-weight:normal;font-stretch:normal;font-size:3.52778px;line-height:1.25;font-family:Arial;-inkscape-font-specification:'Arial, Normal';font-variant-ligatures:none;font-variant-caps:normal;font-variant-numeric:normal;font-variant-east-asian:normal;fill:#2f2d2e;fill-opacity:1;stroke:none;stroke-width:0.264583;stroke-opacity:1"
         x="13.736004"
         y="194.9142"
         id="text3018-79-4-8"><tspan
           sodipodi:role="line"
           id="tspan13600-8"
           x="13.736004"
           y="194.9142">0</tspan></text><text
         xml:space="preserve"
         style="font-size:3.52777px;line-height:1.25;font-family:Arial;-inkscape-font-specification:'Arial, Normal';font-variant-ligatures:none;stroke-width:0.264583"
         x="-158.7784"
         y="15.486114"
         id="text13349-1"
         transform="rotate(-90)"><tspan
           sodipodi:role="line"
           id="tspan13347-8"
           style="stroke-width:0.264583"
           x="-158.7784"
           y="15.486114">GHG emissions</tspan></text></g><g
       id="g1602"
       transform="translate(0,-22.958927)"><text
         xml:space="preserve"
         style="font-style:normal;font-variant:normal;font-weight:normal;font-stretch:normal;font-size:2.82222px;line-height:1.25;font-family:Arial;-inkscape-font-specification:'Arial, Normal';font-variant-ligatures:none;font-variant-caps:normal;font-variant-numeric:normal;font-variant-east-asian:normal;stroke-width:0.264583"
         x="116.73741"
         y="54.463253"
         id="text1651-1-7-0-8-8-4-1"><tspan
           sodipodi:role="line"
           id="tspan4270-1"
           x="116.73741"
           y="54.463253">Scenario pathway to 1.5°C or 2°C</tspan></text><path
         style="fill:none;stroke:#000000;stroke-width:0.5;stroke-linecap:butt;stroke-linejoin:miter;stroke-dasharray:none;stroke-opacity:1"
         d="m 111.74513,53.732895 h 2.46479"
         id="path886" /></g></g></svg>
