<?xml version="1.0" encoding="UTF-8"?>
<svg xmlns="http://www.w3.org/2000/svg" xmlns:xlink="http://www.w3.org/1999/xlink" width="648pt" height="504pt" viewBox="0 0 648 504" version="1.1">
<defs>
<clipPath id="clip1">
  <path d="M 8.21875 5.480469 L 642.519531 5.480469 L 642.519531 495.78125 L 8.21875 495.78125 Z M 8.21875 5.480469 "/>
</clipPath>
<clipPath id="clip2">
  <path d="M 8.21875 417 L 642.519531 417 L 642.519531 419 L 8.21875 419 Z M 8.21875 417 "/>
</clipPath>
<clipPath id="clip3">
  <path d="M 8.21875 306 L 642.519531 306 L 642.519531 307 L 8.21875 307 Z M 8.21875 306 "/>
</clipPath>
<clipPath id="clip4">
  <path d="M 8.21875 194 L 642.519531 194 L 642.519531 196 L 8.21875 196 Z M 8.21875 194 "/>
</clipPath>
<clipPath id="clip5">
  <path d="M 8.21875 83 L 642.519531 83 L 642.519531 84 L 8.21875 84 Z M 8.21875 83 "/>
</clipPath>
<clipPath id="clip6">
  <path d="M 8.21875 472 L 642.519531 472 L 642.519531 475 L 8.21875 475 Z M 8.21875 472 "/>
</clipPath>
<clipPath id="clip7">
  <path d="M 8.21875 361 L 642.519531 361 L 642.519531 363 L 8.21875 363 Z M 8.21875 361 "/>
</clipPath>
<clipPath id="clip8">
  <path d="M 8.21875 250 L 642.519531 250 L 642.519531 252 L 8.21875 252 Z M 8.21875 250 "/>
</clipPath>
<clipPath id="clip9">
  <path d="M 8.21875 138 L 642.519531 138 L 642.519531 140 L 8.21875 140 Z M 8.21875 138 "/>
</clipPath>
<clipPath id="clip10">
  <path d="M 8.21875 27 L 642.519531 27 L 642.519531 29 L 8.21875 29 Z M 8.21875 27 "/>
</clipPath>
<clipPath id="clip11">
  <path d="M 80 5.480469 L 82 5.480469 L 82 495.78125 L 80 495.78125 Z M 80 5.480469 "/>
</clipPath>
<clipPath id="clip12">
  <path d="M 202 5.480469 L 204 5.480469 L 204 495.78125 L 202 495.78125 Z M 202 5.480469 "/>
</clipPath>
<clipPath id="clip13">
  <path d="M 324 5.480469 L 326 5.480469 L 326 495.78125 L 324 495.78125 Z M 324 5.480469 "/>
</clipPath>
<clipPath id="clip14">
  <path d="M 446 5.480469 L 448 5.480469 L 448 495.78125 L 446 495.78125 Z M 446 5.480469 "/>
</clipPath>
<clipPath id="clip15">
  <path d="M 568 5.480469 L 570 5.480469 L 570 495.78125 L 568 495.78125 Z M 568 5.480469 "/>
</clipPath>
<clipPath id="clip16">
  <path d="M 8.21875 5.480469 L 642.519531 5.480469 L 642.519531 495.78125 L 8.21875 495.78125 Z M 8.21875 5.480469 "/>
</clipPath>
</defs>
<g id="surface16">
<rect x="0" y="0" width="648" height="504" style="fill:rgb(100%,100%,100%);fill-opacity:1;stroke:none;"/>
<g clip-path="url(#clip1)" clip-rule="nonzero">
<path style=" stroke:none;fill-rule:nonzero;fill:rgb(100%,100%,100%);fill-opacity:1;" d="M 8.21875 495.78125 L 642.519531 495.78125 L 642.519531 5.480469 L 8.21875 5.480469 Z M 8.21875 495.78125 "/>
</g>
<g clip-path="url(#clip2)" clip-rule="nonzero">
<path style="fill:none;stroke-width:0.533489;stroke-linecap:butt;stroke-linejoin:round;stroke:rgb(92.156863%,92.156863%,92.156863%);stroke-opacity:1;stroke-miterlimit:10;" d="M 8.21875 417.777344 L 642.519531 417.777344 "/>
</g>
<g clip-path="url(#clip3)" clip-rule="nonzero">
<path style="fill:none;stroke-width:0.533489;stroke-linecap:butt;stroke-linejoin:round;stroke:rgb(92.156863%,92.156863%,92.156863%);stroke-opacity:1;stroke-miterlimit:10;" d="M 8.21875 306.347656 L 642.519531 306.347656 "/>
</g>
<g clip-path="url(#clip4)" clip-rule="nonzero">
<path style="fill:none;stroke-width:0.533489;stroke-linecap:butt;stroke-linejoin:round;stroke:rgb(92.156863%,92.156863%,92.156863%);stroke-opacity:1;stroke-miterlimit:10;" d="M 8.21875 194.914063 L 642.519531 194.914063 "/>
</g>
<g clip-path="url(#clip5)" clip-rule="nonzero">
<path style="fill:none;stroke-width:0.533489;stroke-linecap:butt;stroke-linejoin:round;stroke:rgb(92.156863%,92.156863%,92.156863%);stroke-opacity:1;stroke-miterlimit:10;" d="M 8.21875 83.480469 L 642.519531 83.480469 "/>
</g>
<g clip-path="url(#clip6)" clip-rule="nonzero">
<path style="fill:none;stroke-width:1.066978;stroke-linecap:butt;stroke-linejoin:round;stroke:rgb(92.156863%,92.156863%,92.156863%);stroke-opacity:1;stroke-miterlimit:10;" d="M 8.21875 473.496094 L 642.519531 473.496094 "/>
</g>
<g clip-path="url(#clip7)" clip-rule="nonzero">
<path style="fill:none;stroke-width:1.066978;stroke-linecap:butt;stroke-linejoin:round;stroke:rgb(92.156863%,92.156863%,92.156863%);stroke-opacity:1;stroke-miterlimit:10;" d="M 8.21875 362.0625 L 642.519531 362.0625 "/>
</g>
<g clip-path="url(#clip8)" clip-rule="nonzero">
<path style="fill:none;stroke-width:1.066978;stroke-linecap:butt;stroke-linejoin:round;stroke:rgb(92.156863%,92.156863%,92.156863%);stroke-opacity:1;stroke-miterlimit:10;" d="M 8.21875 250.628906 L 642.519531 250.628906 "/>
</g>
<g clip-path="url(#clip9)" clip-rule="nonzero">
<path style="fill:none;stroke-width:1.066978;stroke-linecap:butt;stroke-linejoin:round;stroke:rgb(92.156863%,92.156863%,92.156863%);stroke-opacity:1;stroke-miterlimit:10;" d="M 8.21875 139.199219 L 642.519531 139.199219 "/>
</g>
<g clip-path="url(#clip10)" clip-rule="nonzero">
<path style="fill:none;stroke-width:1.066978;stroke-linecap:butt;stroke-linejoin:round;stroke:rgb(92.156863%,92.156863%,92.156863%);stroke-opacity:1;stroke-miterlimit:10;" d="M 8.21875 27.765625 L 642.519531 27.765625 "/>
</g>
<g clip-path="url(#clip11)" clip-rule="nonzero">
<path style="fill:none;stroke-width:1.066978;stroke-linecap:butt;stroke-linejoin:round;stroke:rgb(92.156863%,92.156863%,92.156863%);stroke-opacity:1;stroke-miterlimit:10;" d="M 81.40625 495.78125 L 81.40625 5.480469 "/>
</g>
<g clip-path="url(#clip12)" clip-rule="nonzero">
<path style="fill:none;stroke-width:1.066978;stroke-linecap:butt;stroke-linejoin:round;stroke:rgb(92.156863%,92.156863%,92.156863%);stroke-opacity:1;stroke-miterlimit:10;" d="M 203.390625 495.78125 L 203.390625 5.480469 "/>
</g>
<g clip-path="url(#clip13)" clip-rule="nonzero">
<path style="fill:none;stroke-width:1.066978;stroke-linecap:butt;stroke-linejoin:round;stroke:rgb(92.156863%,92.156863%,92.156863%);stroke-opacity:1;stroke-miterlimit:10;" d="M 325.371094 495.78125 L 325.371094 5.480469 "/>
</g>
<g clip-path="url(#clip14)" clip-rule="nonzero">
<path style="fill:none;stroke-width:1.066978;stroke-linecap:butt;stroke-linejoin:round;stroke:rgb(92.156863%,92.156863%,92.156863%);stroke-opacity:1;stroke-miterlimit:10;" d="M 447.351563 495.78125 L 447.351563 5.480469 "/>
</g>
<g clip-path="url(#clip15)" clip-rule="nonzero">
<path style="fill:none;stroke-width:1.066978;stroke-linecap:butt;stroke-linejoin:round;stroke:rgb(92.156863%,92.156863%,92.156863%);stroke-opacity:1;stroke-miterlimit:10;" d="M 569.332031 495.78125 L 569.332031 5.480469 "/>
</g>
<path style="fill-rule:nonzero;fill:rgb(98.823529%,55.294118%,38.431373%);fill-opacity:1;stroke-width:1.066978;stroke-linecap:butt;stroke-linejoin:miter;stroke:rgb(38.823529%,38.823529%,38.823529%);stroke-opacity:1;stroke-miterlimit:10;" d="M 392.460938 309.828125 L 502.242188 309.828125 L 502.242188 27.765625 L 392.460938 27.765625 Z M 392.460938 309.828125 "/>
<path style="fill-rule:nonzero;fill:rgb(98.823529%,55.294118%,38.431373%);fill-opacity:1;stroke-width:1.066978;stroke-linecap:butt;stroke-linejoin:miter;stroke:rgb(38.823529%,38.823529%,38.823529%);stroke-opacity:1;stroke-miterlimit:10;" d="M 270.476563 239.898438 L 380.257813 239.898438 L 380.257813 27.765625 L 270.476563 27.765625 Z M 270.476563 239.898438 "/>
<path style="fill-rule:nonzero;fill:rgb(98.823529%,55.294118%,38.431373%);fill-opacity:1;stroke-width:1.066978;stroke-linecap:butt;stroke-linejoin:miter;stroke:rgb(38.823529%,38.823529%,38.823529%);stroke-opacity:1;stroke-miterlimit:10;" d="M 514.441406 325.582031 L 624.222656 325.582031 L 624.222656 27.765625 L 514.441406 27.765625 Z M 514.441406 325.582031 "/>
<path style="fill-rule:nonzero;fill:rgb(98.823529%,55.294118%,38.431373%);fill-opacity:0.501961;stroke-width:1.066978;stroke-linecap:butt;stroke-linejoin:miter;stroke:rgb(38.823529%,38.823529%,38.823529%);stroke-opacity:1;stroke-miterlimit:10;" d="M 392.460938 463.921875 L 502.242188 463.921875 L 502.242188 309.828125 L 392.460938 309.828125 Z M 392.460938 463.921875 "/>
<path style="fill:none;stroke-width:1.066978;stroke-linecap:butt;stroke-linejoin:miter;stroke:rgb(38.823529%,38.823529%,38.823529%);stroke-opacity:1;stroke-miterlimit:10;" d="M 270.476563 27.765625 L 380.257813 27.765625 Z M 270.476563 27.765625 "/>
<path style="fill-rule:nonzero;fill:rgb(98.823529%,55.294118%,38.431373%);fill-opacity:0.501961;stroke-width:1.066978;stroke-linecap:butt;stroke-linejoin:miter;stroke:rgb(38.823529%,38.823529%,38.823529%);stroke-opacity:1;stroke-miterlimit:10;" d="M 514.441406 365.972656 L 624.222656 365.972656 L 624.222656 325.582031 L 514.441406 325.582031 Z M 514.441406 365.972656 "/>
<path style="fill-rule:nonzero;fill:rgb(40%,76.078431%,64.705882%);fill-opacity:1;stroke-width:1.066978;stroke-linecap:butt;stroke-linejoin:miter;stroke:rgb(38.823529%,38.823529%,38.823529%);stroke-opacity:1;stroke-miterlimit:10;" d="M 26.515625 199.226563 L 136.296875 199.226563 L 136.296875 27.765625 L 26.515625 27.765625 Z M 26.515625 199.226563 "/>
<path style="fill-rule:nonzero;fill:rgb(40%,76.078431%,64.705882%);fill-opacity:0.501961;stroke-width:1.066978;stroke-linecap:butt;stroke-linejoin:miter;stroke:rgb(38.823529%,38.823529%,38.823529%);stroke-opacity:1;stroke-miterlimit:10;" d="M 26.515625 230.625 L 136.296875 230.625 L 136.296875 199.226563 L 26.515625 199.226563 Z M 26.515625 230.625 "/>
<path style="fill-rule:nonzero;fill:rgb(40%,76.078431%,64.705882%);fill-opacity:1;stroke-width:1.066978;stroke-linecap:butt;stroke-linejoin:miter;stroke:rgb(38.823529%,38.823529%,38.823529%);stroke-opacity:1;stroke-miterlimit:10;" d="M 148.496094 200.316406 L 258.277344 200.316406 L 258.277344 27.765625 L 148.496094 27.765625 Z M 148.496094 200.316406 "/>
<path style="fill-rule:nonzero;fill:rgb(40%,76.078431%,64.705882%);fill-opacity:0.501961;stroke-width:1.066978;stroke-linecap:butt;stroke-linejoin:miter;stroke:rgb(38.823529%,38.823529%,38.823529%);stroke-opacity:1;stroke-miterlimit:10;" d="M 148.496094 242.738281 L 258.277344 242.738281 L 258.277344 200.316406 L 148.496094 200.316406 Z M 148.496094 242.738281 "/>
<g clip-path="url(#clip16)" clip-rule="nonzero">
<path style="fill:none;stroke-width:1.066978;stroke-linecap:round;stroke-linejoin:round;stroke:rgb(20%,20%,20%);stroke-opacity:1;stroke-miterlimit:10;" d="M 8.21875 495.78125 L 642.519531 495.78125 L 642.519531 5.480469 L 8.21875 5.480469 Z M 8.21875 495.78125 "/>
</g>
</g>
</svg>
